<?xml version="1.0" encoding="UTF-8" standalone="no"?>
<!-- Created with Inkscape (http://www.inkscape.org/) -->

<svg
   xmlns:dc="http://purl.org/dc/elements/1.1/"
   xmlns:cc="http://creativecommons.org/ns#"
   xmlns:rdf="http://www.w3.org/1999/02/22-rdf-syntax-ns#"
   xmlns:svg="http://www.w3.org/2000/svg"
   xmlns="http://www.w3.org/2000/svg"
   xmlns:sodipodi="http://sodipodi.sourceforge.net/DTD/sodipodi-0.dtd"
   xmlns:inkscape="http://www.inkscape.org/namespaces/inkscape"
   inkscape:export-ydpi="90.000000"
   inkscape:export-xdpi="90.000000"
   inkscape:export-filename="/home/jimmac/Desktop/wi-fi.png"
   width="128"
   height="128"
   id="svg11300"
   sodipodi:version="0.32"
   inkscape:version="0.92.1 r15371"
   sodipodi:docname="blender.svg"
   inkscape:output_extension="org.inkscape.output.svg.inkscape"
   version="1.0"
   style="enable-background:new">
  <sodipodi:namedview
     stroke="#ef2929"
     fill="#f57900"
     id="base"
     pagecolor="#474747"
     bordercolor="#666666"
     borderopacity="0.25490196"
     inkscape:pageopacity="0"
     inkscape:pageshadow="2"
     inkscape:zoom="1.75"
     inkscape:cx="-176.13613"
     inkscape:cy="157.85704"
     inkscape:current-layer="layer1"
     showgrid="false"
     inkscape:grid-bbox="true"
     inkscape:document-units="px"
     inkscape:showpageshadow="false"
     inkscape:window-width="1920"
     inkscape:window-height="1001"
     inkscape:window-x="-9"
     inkscape:window-y="-9"
     width="400px"
     height="300px"
     inkscape:snap-nodes="false"
     inkscape:snap-bbox="true"
     inkscape:window-maximized="1"
     inkscape:snap-object-midpoints="true"
     inkscape:snap-center="true">
    <inkscape:grid
       type="xygrid"
       id="grid5883"
       spacingx="1.0666667"
       spacingy="1.0666667"
       originx="0"
       originy="0" />
  </sodipodi:namedview>
  <defs
     id="defs3">
    <inkscape:tag
       id="Set 2" />
    <inkscape:tag
       id="Set 1" />
    <inkscape:perspective
       id="perspective105"
       inkscape:persp3d-origin="320 : 426.66667 : 1"
       inkscape:vp_z="746.66667 : 640 : 1"
       inkscape:vp_y="0 : 1066.6667 : 0"
       inkscape:vp_x="-53.333333 : 640 : 1"
       sodipodi:type="inkscape:persp3d" />
    <inkscape:perspective
       id="perspective5151"
       inkscape:persp3d-origin="320 : 426.66667 : 1"
       inkscape:vp_z="746.66667 : 640 : 1"
       inkscape:vp_y="0 : 1066.6667 : 0"
       inkscape:vp_x="-53.333333 : 640 : 1"
       sodipodi:type="inkscape:persp3d" />
    <inkscape:perspective
       inkscape:persp3d-origin="320 : 426.66667 : 1"
       inkscape:vp_z="746.66667 : 640 : 1"
       inkscape:vp_y="0 : 1066.6667 : 0"
       inkscape:vp_x="-53.333333 : 640 : 1"
       id="perspective103"
       sodipodi:type="inkscape:persp3d" />
    <inkscape:perspective
       inkscape:persp3d-origin="320 : 426.66667 : 1"
       inkscape:vp_z="746.66667 : 640 : 1"
       inkscape:vp_y="0 : 1066.6667 : 0"
       inkscape:vp_x="-53.333333 : 640 : 1"
       id="perspective91"
       sodipodi:type="inkscape:persp3d" />
    <inkscape:perspective
       inkscape:persp3d-origin="320 : 426.66667 : 1"
       inkscape:vp_z="746.66667 : 640 : 1"
       inkscape:vp_y="0 : 1066.6667 : 0"
       inkscape:vp_x="-53.333333 : 640 : 1"
       id="perspective90"
       sodipodi:type="inkscape:persp3d" />
    <linearGradient
       id="linearGradient39155">
      <stop
         style="stop-color:white;stop-opacity:1;"
         offset="0"
         id="stop39157" />
      <stop
         style="stop-color:#dadada;stop-opacity:1;"
         offset="1"
         id="stop39159" />
    </linearGradient>
    <clipPath
       id="clipPath6085"
       clipPathUnits="userSpaceOnUse">
      <path
         style="fill:none;fill-rule:evenodd;stroke:#954900;stroke-width:0.2076302;stroke-linecap:round;stroke-linejoin:round;stroke-miterlimit:4;stroke-dasharray:none;stroke-opacity:1"
         id="path6087"
         d="m 16.048489,28.093447 c 0.0098,0.576682 0.196474,1.697902 0.471116,2.577425 0.581566,1.854137 1.56684,3.572658 2.939126,5.086496 1.407488,1.553118 3.138519,2.803227 5.139315,3.68976 2.105357,0.931573 4.384795,1.407488 6.750134,1.403741 2.365339,-0.005 4.644601,-0.488686 6.74896,-1.427017 2.00002,-0.895288 3.731043,-2.148391 5.13754,-3.705517 1.369207,-1.519844 2.352576,-3.241114 2.934089,-5.096258 0.294262,-0.938353 0.476921,-1.889392 0.553238,-2.845308 0.07331,-0.939306 0.04204,-1.883511 -0.09183,-2.823792 -0.259981,-1.835599 -0.896294,-3.556847 -1.872652,-5.12758 -0.895541,-1.441699 -2.047808,-2.70454 -3.417268,-3.766975 0,0 0.002,-0.002 0.002,-0.002 0,0 -13.828458,-10.6197195 -13.828458,-10.6197195 -0.01176,-0.00978 -0.02252,-0.019551 -0.03529,-0.028344 -0.909003,-0.6959264 -2.434775,-0.6939758 -3.431728,0.00488 -1.01067,0.7057021 -1.091821,1.8092613 -0.195527,2.5482146 1.899775,1.4997633 3.792068,3.0680399 5.702368,4.5676189 0,0 -17.551681,-0.01171 -17.551681,-0.01171 -1.994685,0 -3.1682604,0.947915 -3.4153942,2.333683 -0.2180771,1.222836 0.7479213,2.738129 2.4800212,2.738129 2.956573,0.0039 5.942111,-0.0069 8.909215,-0.01272 0,0 -15.901723,11.764162 -15.901723,11.764162 -0.020527,0.01564 -0.041053,0.02933 -0.06158,0.04497 -1.4974197,1.148389 -1.9831951,3.059322 -1.0399808,4.268393 0.9598323,1.22959 2.9977653,1.230588 4.5147288,0.006 0,0 8.677593,-7.102098 8.677593,-7.102098 0,0 -0.12511,0.959824 -0.116333,1.535532 z"
         sodipodi:nodetypes="csssssssssscccsscccscccssccc"
         inkscape:connector-curvature="0" />
    </clipPath>
    <inkscape:perspective
       sodipodi:type="inkscape:persp3d"
       inkscape:vp_x="0 : 0.53333333 : 1"
       inkscape:vp_y="0 : 1066.6667 : 0"
       inkscape:vp_z="1.0666667 : 0.53333333 : 1"
       inkscape:persp3d-origin="0.53333333 : 0.35555555 : 1"
       id="perspective18062" />
    <inkscape:perspective
       sodipodi:type="inkscape:persp3d"
       inkscape:vp_x="0 : 0.53333333 : 1"
       inkscape:vp_y="0 : 1066.6667 : 0"
       inkscape:vp_z="1.0666667 : 0.53333333 : 1"
       inkscape:persp3d-origin="0.53333333 : 0.35555555 : 1"
       id="perspective19694" />
    <inkscape:perspective
       sodipodi:type="inkscape:persp3d"
       inkscape:vp_x="0 : 0.53333333 : 1"
       inkscape:vp_y="0 : 1066.6667 : 0"
       inkscape:vp_z="1.0666667 : 0.53333333 : 1"
       inkscape:persp3d-origin="0.53333333 : 0.35555555 : 1"
       id="perspective19708" />
    <inkscape:perspective
       sodipodi:type="inkscape:persp3d"
       inkscape:vp_x="0 : 0.53333333 : 1"
       inkscape:vp_y="0 : 1066.6667 : 0"
       inkscape:vp_z="1.0666667 : 0.53333333 : 1"
       inkscape:persp3d-origin="0.53333333 : 0.35555555 : 1"
       id="perspective19722" />
  </defs>
  <metadata
     id="metadata4">
    <rdf:RDF>
      <cc:Work
         rdf:about="">
        <dc:format>image/svg+xml</dc:format>
        <dc:type
           rdf:resource="http://purl.org/dc/dcmitype/StillImage" />
        <dc:creator>
          <cc:Agent>
            <dc:title>Jakub Steiner</dc:title>
          </cc:Agent>
        </dc:creator>
        <dc:source>http://jimmac.musichall.cz</dc:source>
        <cc:license
           rdf:resource="http://creativecommons.org/licenses/by-sa/4.0/" />
        <dc:title></dc:title>
        <dc:subject>
          <rdf:Bag>
            <rdf:li>dir</rdf:li>
            <rdf:li>folder</rdf:li>
          </rdf:Bag>
        </dc:subject>
        <dc:date />
        <dc:rights>
          <cc:Agent>
            <dc:title />
          </cc:Agent>
        </dc:rights>
        <dc:publisher>
          <cc:Agent>
            <dc:title />
          </cc:Agent>
        </dc:publisher>
        <dc:identifier />
        <dc:relation />
        <dc:language />
        <dc:coverage />
        <dc:description />
        <dc:contributor>
          <cc:Agent>
            <dc:title />
          </cc:Agent>
        </dc:contributor>
      </cc:Work>
      <cc:Work
         rdf:about="">
        <dc:format>image/svg+xml</dc:format>
        <dc:type
           rdf:resource="http://purl.org/dc/dcmitype/StillImage" />
      </cc:Work>
      <cc:License
         rdf:about="http://creativecommons.org/licenses/by-sa/4.0/">
        <cc:permits
           rdf:resource="http://creativecommons.org/ns#Reproduction" />
        <cc:permits
           rdf:resource="http://creativecommons.org/ns#Distribution" />
        <cc:requires
           rdf:resource="http://creativecommons.org/ns#Notice" />
        <cc:requires
           rdf:resource="http://creativecommons.org/ns#Attribution" />
        <cc:permits
           rdf:resource="http://creativecommons.org/ns#DerivativeWorks" />
        <cc:requires
           rdf:resource="http://creativecommons.org/ns#ShareAlike" />
      </cc:License>
    </rdf:RDF>
  </metadata>
  <g
     id="layer1"
     inkscape:label="artwork"
     inkscape:groupmode="layer"
     style="display:inline"
     transform="translate(0,-192)">
    <g
       id="g9786"
       transform="matrix(2.4328316,0,0,2.7338035,-1208.8468,77.696772)">
      <path
         id="path9788"
         style="fill:#0a1612;fill-opacity:1;fill-rule:nonzero;stroke:none;stroke-width:1.06666672"
         d="m 523.99977,67.826306 c 0.0926,-1.666428 0.9099,-3.13639 2.1409,-4.178337 v 0 c 1.20957,-1.023634 2.83528,-1.64828 4.61054,-1.648392 v 0 c 1.77442,1.12e-4 3.40014,0.624758 4.60975,1.648392 v 0 c 1.23137,1.041947 2.04862,2.511711 2.14219,4.177773 0.0942,1.714341 -0.59392,3.307187 -1.80269,4.486519 v 0 c -1.23166,1.2013 -2.98628,1.955502 -4.94896,1.955502 v 0 c -1.96325,0 -3.71901,-0.754202 -4.95072,-1.955502 v 0 c -1.20871,-1.17888 -1.89619,-2.771952 -1.80101,-4.485955"
         inkscape:connector-curvature="0" />
      <g
         id="g5637">
        <path
           inkscape:connector-curvature="0"
           d="m 513.24503,71.200631 c 0.0111,0.650939 0.22119,1.918048 0.53247,2.91143 v 0 c 0.65648,2.095065 1.76933,4.035781 3.31989,5.746252 v 0 c 1.5901,1.754853 3.54527,3.167165 5.80644,4.168484 v 0 c 2.3782,1.052562 4.95354,1.59088 7.62547,1.585909 v 0 c 2.67251,-0.005 5.24749,-0.551787 7.62487,-1.612188 v 0 c 2.25922,-1.010931 4.21456,-2.426561 5.80353,-4.186727 v 0 c 1.54741,-1.716747 2.65864,-3.660545 3.31589,-5.757389 v 0 c 0.33187,-1.060182 0.53879,-2.134047 0.62388,-3.213537 v 0 c 0.0829,-1.062076 0.0475,-2.127882 -0.10314,-3.190805 v 0 c -0.294,-2.073214 -1.01202,-4.018113 -2.11533,-5.792301 -1.0123,-1.628861 -2.31378,-3.055203 -3.86121,-4.256389 v 0 l 0.002,-0.002 v 0 L 526.19798,45.604077 v 0 c -0.0135,-0.01074 -0.0262,-0.02176 -0.0399,-0.03222 v 0 c -1.0275,-0.785865 -2.75101,-0.783321 -3.87733,0.0057 v 0 c -1.14131,0.797455 -1.26931,2.11505 -0.2564,2.948971 v 0 l -0.003,0.0026 v 0 l 6.51621,5.299778 -19.86324,0.02121 v 0 c -0.01,0 -0.018,-2.71e-4 -0.0271,-2.71e-4 v 0 c -1.64124,8.33e-4 -3.21831,1.08014 -3.53235,2.440138 v 0 c -0.31836,1.387218 0.7968,2.537294 2.5023,2.543826 v 0 l -9.3e-4,0.0058 v 0 l 10.06633,-0.01933 -17.9654,13.789065 v 0 c -0.0227,0.01732 -0.0464,0.0337 -0.069,0.05134 v 0 c -1.69234,1.297495 -2.24116,3.456163 -1.1749,4.822127 v 0 c 1.08447,1.38934 3.38682,1.390215 5.10025,0.0063 v 0 l 9.80375,-8.022827 c 0,0 -0.1421,1.083588 -0.13139,1.734638 z m 25.1938,3.624983 c -2.02034,2.060635 -4.84635,3.226936 -7.90868,3.231883 v 0 c -3.06374,0.0063 -5.89124,-1.151151 -7.9119,-3.206159 v 0 c -0.98762,-1.002314 -1.7131,-2.15225 -2.16067,-3.381279 v 0 c -0.43817,-1.205595 -0.60843,-2.48387 -0.49657,-3.775173 v 0 c 0.10933,-1.263914 0.48235,-2.466539 1.08405,-3.556969 v 0 c 0.58976,-1.070896 1.40149,-2.038301 2.40358,-2.857437 v 0 c 1.96368,-1.601353 4.46215,-2.466539 7.07897,-2.469961 v 0 c 2.61682,-0.0037 5.11547,0.854783 7.07899,2.449862 v 0 c 1.00128,0.814698 1.81231,1.778937 2.40255,2.847938 v 0 c 0.60127,1.088564 0.9747,2.289636 1.08466,3.553887 v 0 c 0.11166,1.290092 -0.0586,2.569353 -0.49667,3.775938 v 0 c -0.44721,1.22968 -1.17202,2.38162 -2.15831,3.38747"
           style="fill:#0a1612;fill-opacity:1;fill-rule:nonzero;stroke:none;stroke-width:1.06666672"
           id="path9790" />
      </g>
    </g>
  </g>
</svg>
