<?xml version="1.0" encoding="UTF-8" standalone="no"?>
<svg
   xmlns:dc="http://purl.org/dc/elements/1.1/"
   xmlns:cc="http://creativecommons.org/ns#"
   xmlns:rdf="http://www.w3.org/1999/02/22-rdf-syntax-ns#"
   xmlns:svg="http://www.w3.org/2000/svg"
   xmlns="http://www.w3.org/2000/svg"
   xmlns:sodipodi="http://sodipodi.sourceforge.net/DTD/sodipodi-0.dtd"
   xmlns:inkscape="http://www.inkscape.org/namespaces/inkscape"
   viewBox="0 0 128 128"
   version="1.1"
   id="svg6205"
   sodipodi:docname="heroku-plain_v2.svg"
   inkscape:version="0.92.1 r15371">
  <metadata
     id="metadata6211">
    <rdf:RDF>
      <cc:Work
         rdf:about="">
        <dc:format>image/svg+xml</dc:format>
        <dc:type
           rdf:resource="http://purl.org/dc/dcmitype/StillImage" />
        <dc:title></dc:title>
      </cc:Work>
    </rdf:RDF>
  </metadata>
  <defs
     id="defs6209" />
  <sodipodi:namedview
     pagecolor="#ffffff"
     bordercolor="#666666"
     borderopacity="1"
     objecttolerance="10"
     gridtolerance="10"
     guidetolerance="10"
     inkscape:pageopacity="0"
     inkscape:pageshadow="2"
     inkscape:window-width="1920"
     inkscape:window-height="1001"
     id="namedview6207"
     showgrid="false"
     inkscape:zoom="1.84375"
     inkscape:cx="-25.220339"
     inkscape:cy="64"
     inkscape:window-x="-9"
     inkscape:window-y="-9"
     inkscape:window-maximized="1"
     inkscape:current-layer="svg6205" />
  <path
     fill="#6762A6"
     d="M102.1 2h-76.2c-6.6 0-11.9 5.3-11.9 11.9v100.3c0 6.6 5.3 11.9 11.9 11.9h76.3c6.6 0 11.9-5.3 11.9-11.9v-100.3c-.1-6.6-5.4-11.9-12-11.9zm-65.1 106.7v-28.2l14.1 14.1-14.1 14.1zm53 .3h-13.1l.1-.2v-49.4s3.1-11.8-39.7 4.8c-.1.2-.2-45.7-.2-45.7l13.9-.1v29.4s39-15.4 39 11.7v49.5zm-5.2-73h-14.8c5.3-6 10.2-17 10.2-17h15.3s-2.6 7-10.7 17z"
     id="path6203"
     style="fill:#0a1612;fill-opacity:1" />
</svg>
