<?xml version="1.0" encoding="UTF-8" standalone="no"?>
<!-- Created with Inkscape (http://www.inkscape.org/) -->

<svg
   xmlns:dc="http://purl.org/dc/elements/1.1/"
   xmlns:cc="http://creativecommons.org/ns#"
   xmlns:rdf="http://www.w3.org/1999/02/22-rdf-syntax-ns#"
   xmlns:svg="http://www.w3.org/2000/svg"
   xmlns="http://www.w3.org/2000/svg"
   xmlns:sodipodi="http://sodipodi.sourceforge.net/DTD/sodipodi-0.dtd"
   xmlns:inkscape="http://www.inkscape.org/namespaces/inkscape"
   width="128"
   height="128"
   viewBox="0 0 33.866666 33.866666"
   version="1.1"
   id="svg6143"
   inkscape:version="0.92.1 r15371"
   sodipodi:docname="p5js.svg">
  <defs
     id="defs6137" />
  <sodipodi:namedview
     id="base"
     pagecolor="#ffffff"
     bordercolor="#666666"
     borderopacity="1.0"
     inkscape:pageopacity="0.0"
     inkscape:pageshadow="2"
     inkscape:zoom="2.27"
     inkscape:cx="-70"
     inkscape:cy="10.518086"
     inkscape:document-units="mm"
     inkscape:current-layer="layer1"
     showgrid="false"
     inkscape:window-width="1920"
     inkscape:window-height="1001"
     inkscape:window-x="-9"
     inkscape:window-y="-9"
     inkscape:window-maximized="1"
     inkscape:measure-start="-154.286,768.571"
     inkscape:measure-end="520,811.429"
     units="px"
     showguides="false"
     inkscape:snap-grids="true"
     inkscape:snap-to-guides="true"
     inkscape:snap-page="false"
     inkscape:snap-object-midpoints="false"
     inkscape:snap-center="true"
     width="128mm">
    <inkscape:grid
       type="xygrid"
       id="grid6703" />
  </sodipodi:namedview>
  <metadata
     id="metadata6140">
    <rdf:RDF>
      <cc:Work
         rdf:about="">
        <dc:format>image/svg+xml</dc:format>
        <dc:type
           rdf:resource="http://purl.org/dc/dcmitype/StillImage" />
        <dc:title></dc:title>
      </cc:Work>
    </rdf:RDF>
  </metadata>
  <g
     inkscape:label="Layer 1"
     inkscape:groupmode="layer"
     id="layer1"
     transform="translate(0,-263.13337)">
    <path
       inkscape:connector-curvature="0"
       d="m 2.2051609,275.3315 v 1.17899 h 0.048511 c 0.096636,-0.16407 0.2229975,-0.33138 0.3790972,-0.50149 0.1558286,-0.17012 0.3469316,-0.32254 0.5729034,-0.45771 0.2258363,-0.13444 0.4812712,-0.24617 0.76644,-0.33433 0.2847626,-0.0879 0.6050689,-0.13208 0.9599743,-0.13208 0.548713,0 1.0541757,0.11454 1.5167967,0.34317 0.4624857,0.22923 0.8606392,0.54306 1.194191,0.94181 0.3332821,0.39905 0.5914205,0.8684 0.7744139,1.40792 0.1828582,0.53982 0.2743559,1.12062 0.2743559,1.74239 0,0.62179 -0.088799,1.20553 -0.2663819,1.7511 -0.1773179,0.54556 -0.4304544,1.02068 -0.7583307,1.42546 -0.3282813,0.40479 -0.7260287,0.72791 -1.1940556,0.9679 -0.4680268,0.24043 -0.997953,0.36071 -1.5893724,0.36071 -0.5487118,0 -1.0516076,-0.12323 -1.5086874,-0.36941 -0.4574847,-0.24647 -0.8095526,-0.58065 -1.056878,-1.00342 H 2.285974 v 5.35027 H 0.34966959 V 275.3315 Z m 4.5180872,4.18853 c 0,-0.32858 -0.045814,-0.65421 -0.1371786,-0.97689 -0.091627,-0.32254 -0.2286752,-0.61293 -0.4115344,-0.8712 -0.1829934,-0.25767 -0.4141014,-0.46611 -0.6938632,-0.62473 -0.2797618,-0.15832 -0.6077723,-0.23747 -0.9841671,-0.23747 -0.3550409,0 -0.6725094,0.0821 -0.9520015,0.24646 a 2.4428486,2.6644486 0 0 0 -0.7180559,0.63343 2.4760958,2.7007116 0 0 0 -0.4518082,0.88019 c -0.1024478,0.32858 -0.1532607,0.6573 -0.1532607,0.98559 0,0.32858 0.050812,0.65421 0.1532607,0.97659 a 2.4919082,2.7179587 0 0 0 0.4518082,0.8715 2.3264839,2.537528 0 0 0 0.7180559,0.62443 c 0.2794921,0.15861 0.5969606,0.23748 0.9520015,0.23748 0.3763948,0 0.7044053,-0.0818 0.9841671,-0.24618 0.2796275,-0.16436 0.5108698,-0.37546 0.6938632,-0.63372 0.1828592,-0.25797 0.3199034,-0.55132 0.4115344,-0.8799 a 3.099951,3.3811593 0 0 0 0.1371786,-0.98558 z m 18.8736579,-4.59214 v 9.36146 c 0,0.50444 -0.0377,0.98264 -0.112984,1.43431 -0.07554,0.45167 -0.217725,0.84467 -0.427616,1.17929 -0.209619,0.33462 -0.494926,0.60114 -0.855241,0.80073 -0.360579,0.1996 -0.830907,0.2991 -1.411919,0.2991 a 3.6896135,4.0243126 0 0 1 -0.484113,-0.0351 c -0.161229,-0.0236 -0.2903,-0.0472 -0.387203,-0.0706 l 0.161505,-1.79517 c 0.08609,0.0236 0.177317,0.0411 0.27422,0.0529 0.0969,0.0115 0.182724,0.0175 0.258136,0.0175 0.225705,0 0.408563,-0.0469 0.548583,-0.14077 a 0.86523464,0.94372336 0 0 0 0.322873,-0.38725 c 0.07501,-0.16437 0.123525,-0.35497 0.145147,-0.5721 0.02136,-0.21714 0.03218,-0.44857 0.03218,-0.69505 v -9.44932 z m 6.599407,2.6562 c -0.172321,-0.24648 -0.40883,-0.46037 -0.710087,-0.64227 -0.301245,-0.18191 -0.629258,-0.27301 -0.984298,-0.27301 -0.312058,0 -0.596826,0.0706 -0.854962,0.21139 -0.258408,0.14048 -0.387204,0.37546 -0.387204,0.70389 0,0.32843 0.142307,0.5606 0.427345,0.69504 0.285033,0.13503 0.702104,0.273 1.250684,0.41377 0.290304,0.0706 0.583314,0.16437 0.879286,0.28156 0.29598,0.11719 0.564935,0.27272 0.806988,0.46641 a 2.1090262,2.3003441 0 0 1 0.588853,0.72157 c 0.150423,0.28761 0.225969,0.63653 0.225969,1.04721 0,0.51653 -0.08893,0.9536 -0.266377,1.31121 -0.17732,0.35792 -0.414104,0.64832 -0.710084,0.87121 -0.295979,0.22288 -0.640076,0.38429 -1.032686,0.48395 a 5.3573725,5.8433605 0 0 1 -1.218253,0.14947 c -0.602626,0 -1.188648,-0.12028 -1.758845,-0.36071 -0.570201,-0.24014 -1.0435,-0.5836 -1.419896,-1.02922 l 1.274743,-1.30253 c 0.215161,0.30514 0.494651,0.55736 0.839149,0.75667 0.344236,0.19958 0.725894,0.29909 1.14567,0.29909 0.139612,0 0.282197,-0.0173 0.427623,-0.0527 a 1.4517886,1.5834859 0 0 0 0.403285,-0.16702 0.83820449,0.91424121 0 0 0 0.298551,-0.30809 c 0.07501,-0.12928 0.112712,-0.2873 0.112712,-0.47539 0,-0.35217 -0.147846,-0.60409 -0.443431,-0.75666 -0.296112,-0.15258 -0.739947,-0.30514 -1.33123,-0.45757 a 6.3927623,6.9726741 0 0 1 -0.847395,-0.273 c -0.274219,-0.11144 -0.51898,-0.25797 -0.73414,-0.43988 a 1.8621061,2.0310248 0 0 1 -0.516277,-0.67779 c -0.129064,-0.26976 -0.193804,-0.60409 -0.193804,-1.00313 0,-0.46935 0.08867,-0.87385 0.266385,-1.21408 a 2.2889119,2.4965478 0 0 1 0.70184,-0.8364 c 0.290297,-0.21684 0.618445,-0.37826 0.984297,-0.48366 a 4.3905048,4.7887844 0 0 1 1.129456,-0.15861 c 0.559115,0 1.105262,0.10569 1.637618,0.31663 0.532358,0.2114 0.954433,0.53438 1.266772,0.9682 z m -11.434288,4.40817 1.153239,-0.37973 0.226514,0.76004 -1.14851,0.4272 0.71292,1.10263 -0.601021,0.47555 -0.750491,-1.08317 -0.730891,1.05457 -0.583719,-0.48483 0.712922,-1.06475 -1.157295,-0.4555 0.226647,-0.76064 1.162159,0.40848 v -1.31122 h 0.77766 v 1.31137 z m -3.9833,-3.97715 c -0.199075,-0.4866 -0.475867,-0.89743 -0.830907,-1.23191 -0.354904,-0.33432 -0.771843,-0.58964 -1.250411,-0.7655 -0.478839,-0.17587 -0.99795,-0.26402 -1.557069,-0.26402 -0.204487,0 -0.433025,0.0121 -0.685755,0.0351 -0.252868,0.0239 -0.470597,0.0647 -0.653453,0.12353 l 0.11285,-2.69289 h 4.663237 v -1.90057 h -6.502641 l -0.1936694,6.81052 c 0.1717774,-0.0936 0.3682844,-0.18161 0.5888524,-0.26401 a 9.0538789,9.8751909 0 0 1 0.677646,-0.21964 6.1894956,6.7509683 0 0 1 0.710082,-0.14977 5.2151944,5.6882845 0 0 1 0.685755,-0.0527 c 0.311792,0 0.618448,0.038 0.919699,0.11425 0.301116,0.0763 0.572769,0.21138 0.814825,0.40478 0.242053,0.19341 0.438157,0.44887 0.588986,0.76551 0.150423,0.31663 0.225835,0.71568 0.225835,1.19683 0,0.37545 -0.05649,0.71287 -0.169477,1.01197 -0.112851,0.2988 -0.266246,0.54851 -0.459648,0.74767 a 1.9898235,2.1703279 0 0 1 -0.677917,0.45756 c -0.258138,0.10599 -0.532359,0.15861 -0.822932,0.15861 -0.516141,0 -0.962815,-0.14977 -1.339207,-0.44886 -0.376664,-0.2991 -0.645344,-0.69505 -0.80685,-1.18799 l -0.02149,0.009 -1.4012403,1.4321 c 0.2834109,0.50415 0.6487223,0.92589 1.1001243,1.2608 0.656023,0.48661 1.462736,0.73043 2.420414,0.73043 0.570067,0 1.107829,-0.0999 1.613431,-0.2991 0.505464,-0.1993 0.946593,-0.4869 1.323124,-0.86265 0.376391,-0.37516 0.674941,-0.83582 0.895644,-1.38139 0.220292,-0.54556 0.330574,-1.16424 0.330574,-1.85678 1.37e-4,-0.63357 -0.09934,-1.19344 -0.298414,-1.68063 z"
       id="path9523"
       style="fill:#0a1612;fill-opacity:1;stroke-width:0.14114763" />
  </g>
</svg>
