<?xml version="1.0" encoding="UTF-8" standalone="no"?>
<!-- Created with Inkscape (http://www.inkscape.org/) -->

<svg
   xmlns:dc="http://purl.org/dc/elements/1.1/"
   xmlns:cc="http://creativecommons.org/ns#"
   xmlns:rdf="http://www.w3.org/1999/02/22-rdf-syntax-ns#"
   xmlns:svg="http://www.w3.org/2000/svg"
   xmlns="http://www.w3.org/2000/svg"
   xmlns:sodipodi="http://sodipodi.sourceforge.net/DTD/sodipodi-0.dtd"
   xmlns:inkscape="http://www.inkscape.org/namespaces/inkscape"
   width="400"
   height="400"
   viewBox="0 0 105.83333 105.83334"
   version="1.1"
   id="svg8"
   inkscape:version="0.92.1 r15371"
   sodipodi:docname="develop.svg">
  <defs
     id="defs2" />
  <sodipodi:namedview
     id="base"
     pagecolor="#ffffff"
     bordercolor="#666666"
     borderopacity="1.0"
     inkscape:pageopacity="0"
     inkscape:pageshadow="2"
     inkscape:zoom="1.4142136"
     inkscape:cx="270.69758"
     inkscape:cy="222.945"
     inkscape:document-units="px"
     inkscape:current-layer="layer1"
     showgrid="false"
     units="px"
     showborder="true"
     inkscape:snap-global="false"
     showguides="true"
     inkscape:guide-bbox="true"
     inkscape:window-width="1920"
     inkscape:window-height="1001"
     inkscape:window-x="-9"
     inkscape:window-y="-9"
     inkscape:window-maximized="1" />
  <metadata
     id="metadata5">
    <rdf:RDF>
      <cc:Work
         rdf:about="">
        <dc:format>image/svg+xml</dc:format>
        <dc:type
           rdf:resource="http://purl.org/dc/dcmitype/StillImage" />
        <dc:title />
      </cc:Work>
    </rdf:RDF>
  </metadata>
  <g
     inkscape:label="Layer 1"
     inkscape:groupmode="layer"
     id="layer1"
     transform="translate(0,-191.16665)">
    <circle
       style="opacity:1;fill:#f9f9f9;fill-opacity:1;stroke:none;stroke-width:1.17570102;stroke-miterlimit:4;stroke-dasharray:none"
       id="path4485"
       cx="53.059013"
       cy="244.16647"
       r="52.916668" />
    <text
       xml:space="preserve"
       style="font-style:normal;font-weight:normal;font-size:10.58333397px;line-height:1.25;font-family:sans-serif;letter-spacing:0px;word-spacing:0px;fill:#43687a;fill-opacity:1;stroke:none;stroke-width:0.26458335"
       x="33.693413"
       y="212.12041"
       id="text5156"><tspan
         sodipodi:role="line"
         id="tspan5154"
         x="33.693413"
         y="212.12041"
         style="font-style:normal;font-variant:normal;font-weight:300;font-stretch:normal;font-family:Lato;-inkscape-font-specification:'Lato Light';fill:#43687a;fill-opacity:1;stroke-width:0.26458335">Develop</tspan></text>
    <path
       style="fill:none;stroke:#000000;stroke-width:0.74925399;stroke-linecap:round;stroke-linejoin:round;stroke-miterlimit:4;stroke-dasharray:none;stroke-opacity:1"
       d="m 47.94569,266.36726 -0.05067,-1.34132 c -0.04422,-1.95484 -1.809692,-1.55869 -2.744587,-1.60059 -0.921968,0.008 -2.341083,0.0824 -3.396488,-0.21523 -1.178455,-0.33232 -1.297404,-1.61259 -1.120052,-2.66579 0.17831,-1.05887 0.361326,-4.62515 1.707052,-4.80062 1.107615,-0.14442 19.71508,-0.1154 24.402591,-0.004"
       id="path4537"
       inkscape:connector-curvature="0"
       sodipodi:nodetypes="cccsssc" />
    <path
       inkscape:connector-curvature="0"
       style="opacity:1;fill:#0b1113;fill-opacity:1;stroke:none;stroke-width:0.13690712;stroke-miterlimit:4;stroke-dasharray:none"
       d="m 29.307945,267.79441 h 33.197462 c 1.008518,0 1.82043,0.81191 1.82043,1.82043 v 10.09546 c 0,1.00852 -0.811912,1.82043 -1.82043,1.82043 H 29.307945 c -1.008519,0 -1.820431,-0.81191 -1.820431,-1.82043 v -10.09546 c 0,-1.00852 0.811912,-1.82043 1.820431,-1.82043 z"
       id="rect4532" />
    <path
       style="opacity:1;fill:#2e4a56;fill-opacity:1;stroke:none;stroke-width:0.13690712;stroke-miterlimit:4;stroke-dasharray:none"
       d="m 28.780871,266.36726 h 34.251614 c 0.716516,0 1.293352,0.57683 1.293352,1.29335 v 11.14962 c 0,0.71652 -0.576836,1.29336 -1.293352,1.29336 H 28.780871 c -0.716521,0 -1.293357,-0.57684 -1.293357,-1.29336 v -11.14962 c 0,-0.71652 0.576836,-1.29335 1.293357,-1.29335 z"
       id="rect4530"
       inkscape:connector-curvature="0" />
    <path
       inkscape:connector-curvature="0"
       style="opacity:1;fill:#1a2930;fill-opacity:1;stroke:none;stroke-width:0.13690712;stroke-miterlimit:4;stroke-dasharray:none"
       d="m 29.307945,267.25923 h 33.197462 c 1.008518,0 1.82043,0.81191 1.82043,1.82043 v 10.09546 c 0,1.00852 -0.811912,1.82043 -1.82043,1.82043 H 29.307945 c -1.008519,0 -1.820431,-0.81191 -1.820431,-1.82043 v -10.09546 c 0,-1.00852 0.811912,-1.82043 1.820431,-1.82043 z"
       id="rect4528" />
    <path
       inkscape:connector-curvature="0"
       style="opacity:1;fill:#c5c1c0;fill-opacity:1;stroke:none;stroke-width:0.61798114;stroke-linecap:round;stroke-linejoin:round;stroke-miterlimit:4;stroke-dasharray:none;stroke-opacity:1"
       d="m 29.94043,268.55259 h 2.157767 v 1.96654 H 29.94043 Z"
       id="rect4734" />
    <path
       inkscape:connector-curvature="0"
       style="opacity:1;fill:#c5c1c0;fill-opacity:1;stroke:none;stroke-width:0.61798114;stroke-linecap:round;stroke-linejoin:round;stroke-miterlimit:4;stroke-dasharray:none;stroke-opacity:1"
       d="m 33.23387,268.55259 h 2.157767 v 1.96654 H 33.23387 Z"
       id="rect4736" />
    <path
       inkscape:connector-curvature="0"
       style="opacity:1;fill:#c5c1c0;fill-opacity:1;stroke:none;stroke-width:0.61798114;stroke-linecap:round;stroke-linejoin:round;stroke-miterlimit:4;stroke-dasharray:none;stroke-opacity:1"
       d="m 36.52731,268.55259 h 2.157767 v 1.96654 H 36.52731 Z"
       id="rect4738" />
    <path
       inkscape:connector-curvature="0"
       style="opacity:1;fill:#c5c1c0;fill-opacity:1;stroke:none;stroke-width:0.61798114;stroke-linecap:round;stroke-linejoin:round;stroke-miterlimit:4;stroke-dasharray:none;stroke-opacity:1"
       d="m 39.820755,268.55259 h 2.157772 v 1.96654 h -2.157772 z"
       id="rect4740" />
    <path
       inkscape:connector-curvature="0"
       style="opacity:1;fill:#c5c1c0;fill-opacity:1;stroke:none;stroke-width:0.61798114;stroke-linecap:round;stroke-linejoin:round;stroke-miterlimit:4;stroke-dasharray:none;stroke-opacity:1"
       d="m 43.114199,268.55259 h 2.157772 v 1.96654 h -2.157772 z"
       id="rect4742" />
    <path
       inkscape:connector-curvature="0"
       style="opacity:1;fill:#c5c1c0;fill-opacity:1;stroke:none;stroke-width:0.61798114;stroke-linecap:round;stroke-linejoin:round;stroke-miterlimit:4;stroke-dasharray:none;stroke-opacity:1"
       d="m 46.407615,268.55259 h 2.157768 v 1.96654 h -2.157768 z"
       id="rect4744" />
    <path
       inkscape:connector-curvature="0"
       style="opacity:1;fill:#c5c1c0;fill-opacity:1;stroke:none;stroke-width:0.61798114;stroke-linecap:round;stroke-linejoin:round;stroke-miterlimit:4;stroke-dasharray:none;stroke-opacity:1"
       d="m 49.701032,268.55259 h 2.157771 v 1.96654 h -2.157771 z"
       id="rect4746" />
    <path
       inkscape:connector-curvature="0"
       style="opacity:1;fill:#c5c1c0;fill-opacity:1;stroke:none;stroke-width:0.61798114;stroke-linecap:round;stroke-linejoin:round;stroke-miterlimit:4;stroke-dasharray:none;stroke-opacity:1"
       d="m 52.994452,268.55259 h 2.157768 v 1.96654 h -2.157768 z"
       id="rect4748" />
    <path
       inkscape:connector-curvature="0"
       style="opacity:1;fill:#c5c1c0;fill-opacity:1;stroke:none;stroke-width:0.61798114;stroke-linecap:round;stroke-linejoin:round;stroke-miterlimit:4;stroke-dasharray:none;stroke-opacity:1"
       d="m 56.287878,268.55259 h 2.157768 v 1.96654 h -2.157768 z"
       id="rect4750" />
    <path
       inkscape:connector-curvature="0"
       style="opacity:1;fill:#c5c1c0;fill-opacity:1;stroke:none;stroke-width:0.61798114;stroke-linecap:round;stroke-linejoin:round;stroke-miterlimit:4;stroke-dasharray:none;stroke-opacity:1"
       d="m 59.581302,268.55259 h 2.157769 v 1.96654 h -2.157769 z"
       id="rect4752" />
    <path
       inkscape:connector-curvature="0"
       style="opacity:1;fill:#c5c1c0;fill-opacity:1;stroke:none;stroke-width:0.76347935;stroke-linecap:round;stroke-linejoin:round;stroke-miterlimit:4;stroke-dasharray:none;stroke-opacity:1"
       d="m 29.94043,271.55415 h 3.293431 v 1.96654 H 29.94043 Z"
       id="rect4754" />
    <path
       inkscape:connector-curvature="0"
       style="opacity:1;fill:#c5c1c0;fill-opacity:1;stroke:none;stroke-width:0.61798114;stroke-linecap:round;stroke-linejoin:round;stroke-miterlimit:4;stroke-dasharray:none;stroke-opacity:1"
       d="m 34.608766,271.55415 h 2.157767 v 1.96654 h -2.157767 z"
       id="rect4758" />
    <path
       inkscape:connector-curvature="0"
       style="opacity:1;fill:#c5c1c0;fill-opacity:1;stroke:none;stroke-width:0.61798114;stroke-linecap:round;stroke-linejoin:round;stroke-miterlimit:4;stroke-dasharray:none;stroke-opacity:1"
       d="m 38.004695,271.55415 h 2.157767 v 1.96654 h -2.157767 z"
       id="rect4760" />
    <path
       inkscape:connector-curvature="0"
       style="opacity:1;fill:#c5c1c0;fill-opacity:1;stroke:none;stroke-width:0.61798114;stroke-linecap:round;stroke-linejoin:round;stroke-miterlimit:4;stroke-dasharray:none;stroke-opacity:1"
       d="m 41.51665,271.55415 h 2.157767 v 1.96654 H 41.51665 Z"
       id="rect4762" />
    <path
       inkscape:connector-curvature="0"
       style="opacity:1;fill:#c5c1c0;fill-opacity:1;stroke:none;stroke-width:0.61798114;stroke-linecap:round;stroke-linejoin:round;stroke-miterlimit:4;stroke-dasharray:none;stroke-opacity:1"
       d="m 44.933984,271.55415 h 2.157767 v 1.96654 h -2.157767 z"
       id="rect4764" />
    <path
       inkscape:connector-curvature="0"
       style="opacity:1;fill:#c5c1c0;fill-opacity:1;stroke:none;stroke-width:0.61798114;stroke-linecap:round;stroke-linejoin:round;stroke-miterlimit:4;stroke-dasharray:none;stroke-opacity:1"
       d="m 48.351313,271.55415 h 2.157772 v 1.96654 h -2.157772 z"
       id="rect4766" />
    <path
       inkscape:connector-curvature="0"
       style="opacity:1;fill:#c5c1c0;fill-opacity:1;stroke:none;stroke-width:0.61798114;stroke-linecap:round;stroke-linejoin:round;stroke-miterlimit:4;stroke-dasharray:none;stroke-opacity:1"
       d="m 51.610973,271.55415 h 2.157772 v 1.96654 h -2.157772 z"
       id="rect4768" />
    <path
       inkscape:connector-curvature="0"
       style="opacity:1;fill:#c5c1c0;fill-opacity:1;stroke:none;stroke-width:0.61798114;stroke-linecap:round;stroke-linejoin:round;stroke-miterlimit:4;stroke-dasharray:none;stroke-opacity:1"
       d="m 55.122909,271.55415 h 2.157769 v 1.96654 h -2.157769 z"
       id="rect4770" />
    <path
       inkscape:connector-curvature="0"
       style="opacity:1;fill:#c5c1c0;fill-opacity:1;stroke:none;stroke-width:0.76347935;stroke-linecap:round;stroke-linejoin:round;stroke-miterlimit:4;stroke-dasharray:none;stroke-opacity:1"
       d="m 58.445639,271.55415 h 3.293431 v 1.96654 h -3.293431 z"
       id="rect4772" />
    <path
       inkscape:connector-curvature="0"
       style="opacity:1;fill:#c5c1c0;fill-opacity:1;stroke:none;stroke-width:0.90897918;stroke-linecap:round;stroke-linejoin:round;stroke-miterlimit:4;stroke-dasharray:none;stroke-opacity:1"
       d="m 29.94043,274.55569 h 4.668331 v 1.96654 H 29.94043 Z"
       id="rect4774" />
    <path
       inkscape:connector-curvature="0"
       style="opacity:1;fill:#c5c1c0;fill-opacity:1;stroke:none;stroke-width:0.61798114;stroke-linecap:round;stroke-linejoin:round;stroke-miterlimit:4;stroke-dasharray:none;stroke-opacity:1"
       d="m 36.038695,274.55569 h 2.157772 v 1.96654 h -2.157772 z"
       id="rect4776" />
    <path
       inkscape:connector-curvature="0"
       style="opacity:1;fill:#c5c1c0;fill-opacity:1;stroke:none;stroke-width:0.90897918;stroke-linecap:round;stroke-linejoin:round;stroke-miterlimit:4;stroke-dasharray:none;stroke-opacity:1"
       d="m 57.070739,274.55569 h 4.668332 v 1.96654 h -4.668332 z"
       id="rect4778" />
    <path
       inkscape:connector-curvature="0"
       style="opacity:1;fill:#c5c1c0;fill-opacity:1;stroke:none;stroke-width:0.61798114;stroke-linecap:round;stroke-linejoin:round;stroke-miterlimit:4;stroke-dasharray:none;stroke-opacity:1"
       d="m 39.444574,274.55569 h 2.157767 v 1.96654 h -2.157767 z"
       id="rect4780" />
    <path
       inkscape:connector-curvature="0"
       style="opacity:1;fill:#c5c1c0;fill-opacity:1;stroke:none;stroke-width:0.61798114;stroke-linecap:round;stroke-linejoin:round;stroke-miterlimit:4;stroke-dasharray:none;stroke-opacity:1"
       d="m 42.976592,274.55569 h 2.157772 v 1.96654 h -2.157772 z"
       id="rect4782" />
    <path
       inkscape:connector-curvature="0"
       style="opacity:1;fill:#c5c1c0;fill-opacity:1;stroke:none;stroke-width:0.61798114;stroke-linecap:round;stroke-linejoin:round;stroke-miterlimit:4;stroke-dasharray:none;stroke-opacity:1"
       d="M 46.445533,274.55569 H 48.6033 v 1.96654 h -2.157767 z"
       id="rect4784" />
    <path
       inkscape:connector-curvature="0"
       style="opacity:1;fill:#c5c1c0;fill-opacity:1;stroke:none;stroke-width:0.61798114;stroke-linecap:round;stroke-linejoin:round;stroke-miterlimit:4;stroke-dasharray:none;stroke-opacity:1"
       d="m 49.7568,274.55569 h 2.157772 v 1.96654 H 49.7568 Z"
       id="rect4786" />
    <path
       inkscape:connector-curvature="0"
       style="opacity:1;fill:#c5c1c0;fill-opacity:1;stroke:none;stroke-width:0.61798114;stroke-linecap:round;stroke-linejoin:round;stroke-miterlimit:4;stroke-dasharray:none;stroke-opacity:1"
       d="m 53.288813,274.55569 h 2.157772 v 1.96654 h -2.157772 z"
       id="rect4788" />
    <path
       inkscape:connector-curvature="0"
       style="opacity:1;fill:#c5c1c0;fill-opacity:1;stroke:none;stroke-width:0.90897918;stroke-linecap:round;stroke-linejoin:round;stroke-miterlimit:4;stroke-dasharray:none;stroke-opacity:1"
       d="m 29.94043,277.55724 h 4.668331 v 1.96654 H 29.94043 Z"
       id="rect4790" />
    <path
       inkscape:connector-curvature="0"
       style="opacity:1;fill:#c5c1c0;fill-opacity:1;stroke:none;stroke-width:1.85336959;stroke-linecap:round;stroke-linejoin:round;stroke-miterlimit:4;stroke-dasharray:none;stroke-opacity:1"
       d="M 36.038695,277.55724 H 55.44658 v 1.96654 H 36.038695 Z"
       id="rect4792" />
    <path
       inkscape:connector-curvature="0"
       style="opacity:1;fill:#c5c1c0;fill-opacity:1;stroke:none;stroke-width:0.61798114;stroke-linecap:round;stroke-linejoin:round;stroke-miterlimit:4;stroke-dasharray:none;stroke-opacity:1"
       d="m 59.581302,277.55724 h 2.157769 v 1.96654 h -2.157769 z"
       id="rect4794" />
    <path
       inkscape:connector-curvature="0"
       style="opacity:1;fill:#c5c1c0;fill-opacity:1;stroke:none;stroke-width:0.61798114;stroke-linecap:round;stroke-linejoin:round;stroke-miterlimit:4;stroke-dasharray:none;stroke-opacity:1"
       d="m 56.531574,277.55724 h 2.15777 v 1.96654 h -2.15777 z"
       id="rect4796" />
    <path
       style="opacity:1;fill:#ffa90b;fill-opacity:1;stroke:none;stroke-width:0.28893203;stroke-linecap:round;stroke-linejoin:round;stroke-miterlimit:4;stroke-dasharray:none;stroke-opacity:1"
       d="m 72.608036,269.51853 c -1.158803,0 -2.091747,0.93287 -2.091747,2.09167 v 0.62271 h 2.298463 v -2.71438 z m 0.474231,0 v 2.71438 h 2.298463 v -0.62271 c 0,-1.1588 -0.932877,-2.09167 -2.09168,-2.09167 z m -2.565978,2.98196 v 2.79715 c 0,1.1588 0.932944,2.09168 2.091747,2.09168 h 0.681014 c 1.158803,0 2.09168,-0.93288 2.09168,-2.09168 v -2.79715 z"
       id="rect5012"
       inkscape:connector-curvature="0" />
    <path
       style="fill:none;stroke:#000000;stroke-width:0.2116134;stroke-linecap:round;stroke-linejoin:round;stroke-miterlimit:4;stroke-dasharray:none;stroke-opacity:1"
       d="m 72.949532,268.97401 c -0.03318,-1.42922 0.02896,-3.94746 -5.998452,-3.81645 -1.820799,-0.0575 -3.355899,-1.49706 -3.691821,-3.2526 -0.298021,-1.55746 -0.358195,-3.42563 0.0292,-4.17495 1.001997,-1.93812 3.021219,-1.27108 3.809082,-1.28368"
       id="path5023"
       inkscape:connector-curvature="0"
       sodipodi:nodetypes="ccssc" />
    <g
       id="g4565"
       transform="matrix(0.92055666,0,0,0.92055666,60.877099,116.39398)">
      <path
         inkscape:connector-curvature="0"
         id="path4504"
         d="m -40.43967,129.38382 v -15.71209 h 29.000651 29.000638 v 15.71209 15.71208 H -11.439019 -40.43967 Z"
         style="opacity:1;fill:#e1e1e1;fill-opacity:1;stroke:none;stroke-width:0.20761378;stroke-miterlimit:4;stroke-dasharray:none" />
      <path
         inkscape:connector-curvature="0"
         id="rect4485"
         d="m -39.819622,112.00643 c -1.02805,0 -1.855678,1.03204 -1.855678,2.31402 v 33.25722 c 0,1.28196 0.827628,2.31403 1.855678,2.31403 h 56.885058 c 1.028049,0 1.855683,-1.03207 1.855683,-2.31403 v -33.25722 c 0,-1.28198 -0.827634,-2.31402 -1.855683,-2.31402 z m -0.04667,1.97487 h 56.978396 v 30.8207 h -56.978399 z"
         style="opacity:1;fill:#0a1612;fill-opacity:1;stroke:none;stroke-width:0.30334011;stroke-miterlimit:4;stroke-dasharray:none" />
      <rect
         inkscape:export-ydpi="156.09756"
         inkscape:export-xdpi="156.09756"
         ry="3.7364202"
         rx="0.23824774"
         y="150.03659"
         x="-23.065811"
         height="2.8251016"
         width="23.377531"
         id="rect4495"
         style="opacity:1;fill:#0a1612;fill-opacity:1;stroke:none;stroke-width:0.2446003;stroke-miterlimit:4;stroke-dasharray:none" />
      <path
         inkscape:export-ydpi="156.09756"
         inkscape:export-xdpi="156.09756"
         sodipodi:nodetypes="ccccc"
         inkscape:connector-curvature="0"
         id="rect4584"
         d="M -23.137326,153.15144 H 0.24022035 l 2.21621425,3.40461 H -25.210564 Z"
         style="opacity:1;fill:#0a1612;fill-opacity:1;stroke:none;stroke-width:0.191967;stroke-miterlimit:4;stroke-dasharray:none" />
      <path
         inkscape:connector-curvature="0"
         id="path4498"
         d="m -39.819715,129.38382 v -15.38397 h 28.466944 28.466976 v 15.38397 15.38398 h -28.466976 -28.466944 z"
         style="opacity:1;fill:#000000;fill-opacity:0;stroke:none;stroke-width:0.20441079;stroke-miterlimit:4;stroke-dasharray:none" />
      <ellipse
         ry="1.5426824"
         rx="1.552743"
         cy="147.23183"
         cx="-11.377134"
         id="path4528"
         style="opacity:1;fill:#c5c1c0;fill-opacity:1;stroke:none;stroke-width:0.07998684;stroke-miterlimit:4;stroke-dasharray:none" />
      <g
         id="flowRoot4530"
         style="font-style:normal;font-weight:normal;font-size:40px;line-height:1.25;font-family:sans-serif;letter-spacing:0px;word-spacing:0px;fill:#0a1612;fill-opacity:1;stroke:none"
         transform="matrix(0.03375529,0,0,0.03353657,-2.5780929,139.04725)"
         aria-label="W">
        <path
           inkscape:connector-curvature="0"
           id="path4516"
           style="font-style:normal;font-variant:normal;font-weight:300;font-stretch:normal;font-family:Lato;-inkscape-font-specification:'Lato Light';fill:#0a1612;fill-opacity:1"
           d="m -241.28,229.9 -8.9,28.3 h -1.84 l -8.36,-24.56 q -0.16,-0.5 -0.28,-1.04 -0.12,0.54 -0.28,1.04 l -8.38,24.56 h -1.82 l -8.92,-28.3 h 1.7 q 0.58,0 0.74,0.54 l 7.14,23.26 q 0.22,0.8 0.4,1.82 0.1,-0.52 0.2,-0.96 0.1,-0.46 0.24,-0.86 l 8,-23.26 q 0.08,-0.22 0.28,-0.38 0.2,-0.16 0.48,-0.16 h 0.56 q 0.28,0 0.46,0.16 0.18,0.14 0.28,0.38 l 8,23.26 q 0.14,0.38 0.24,0.84 0.12,0.46 0.22,0.96 0.1,-0.5 0.18,-0.94 0.1,-0.46 0.2,-0.86 l 7.14,-23.26 q 0.06,-0.22 0.26,-0.38 0.22,-0.16 0.5,-0.16 z" />
      </g>
    </g>
    <path
       inkscape:connector-curvature="0"
       style="opacity:1;fill:#ffa90b;fill-opacity:1;stroke:#f9f9f9;stroke-width:0.64743543;stroke-linecap:round;stroke-linejoin:round;stroke-miterlimit:4;stroke-dasharray:none;stroke-opacity:1"
       d="m 69.882334,228.12097 h 10.365778 c 1.724568,0 3.112941,1.45658 3.112941,3.26588 v 24.73417 c 0,1.80929 -1.388373,3.26588 -3.112941,3.26588 H 69.882334 c -1.724575,0 -3.112948,-1.45659 -3.112948,-3.26588 v -24.73417 c 0,-1.8093 1.388373,-3.26588 3.112948,-3.26588 z"
       id="rect4539" />
    <rect
       style="opacity:1;fill:#000000;fill-opacity:1;stroke:none;stroke-width:1.47920096;stroke-linecap:round;stroke-linejoin:round;stroke-miterlimit:4;stroke-dasharray:none"
       id="rect4549"
       width="11.17207"
       height="2.3093274"
       x="69.606171"
       y="230.63589" />
    <path
       style="opacity:1;fill:#4d4d4d;fill-opacity:1;stroke:none;stroke-width:0.31875202;stroke-linecap:round;stroke-linejoin:round;stroke-miterlimit:4;stroke-dasharray:none"
       d="m 67.012029,255.72387 3.569496,3.35946 v 1.42937 h -3.535993 z"
       id="rect4541"
       inkscape:connector-curvature="0"
       sodipodi:nodetypes="ccccc" />
    <path
       sodipodi:nodetypes="ccccc"
       inkscape:connector-curvature="0"
       id="path4547"
       d="m 83.11871,255.70816 -3.492349,3.37517 v 1.42937 h 3.535993 z"
       style="opacity:1;fill:#4d4d4d;fill-opacity:1;stroke:none;stroke-width:0.31875202;stroke-linecap:round;stroke-linejoin:round;stroke-miterlimit:4;stroke-dasharray:none" />
    <rect
       style="opacity:1;fill:#666666;fill-opacity:1;stroke:none;stroke-width:0.40529212;stroke-linecap:round;stroke-linejoin:round;stroke-miterlimit:4;stroke-dasharray:none;stroke-opacity:1"
       id="rect4609"
       width="0.77701199"
       height="1.7302229"
       x="68.642075"
       y="233.91843" />
    <rect
       y="233.91843"
       x="69.700401"
       height="1.7302229"
       width="0.77701199"
       id="rect4611"
       style="opacity:1;fill:#666666;fill-opacity:1;stroke:none;stroke-width:0.40529212;stroke-linecap:round;stroke-linejoin:round;stroke-miterlimit:4;stroke-dasharray:none;stroke-opacity:1" />
    <text
       xml:space="preserve"
       style="font-style:normal;font-variant:normal;font-weight:300;font-stretch:normal;font-size:8.1520319px;line-height:1.25;font-family:Lato;-inkscape-font-specification:'Lato Light';letter-spacing:0px;word-spacing:0px;fill:#8e6f05;fill-opacity:1;stroke:none;stroke-width:0.2038008"
       x="25.401031"
       y="228.46169"
       id="text5039"><tspan
         sodipodi:role="line"
         id="tspan5037"
         x="25.401031"
         y="228.46169"
         style="font-style:normal;font-variant:normal;font-weight:300;font-stretch:normal;font-family:Lato;-inkscape-font-specification:'Lato Light';fill:#8e6f05;fill-opacity:1;stroke-width:0.2038008">&lt;/&gt;</tspan></text>
  </g>
</svg>
