<?xml version="1.0" encoding="UTF-8" standalone="no"?>
<!-- Created with Inkscape (http://www.inkscape.org/) -->

<svg
   xmlns:dc="http://purl.org/dc/elements/1.1/"
   xmlns:cc="http://creativecommons.org/ns#"
   xmlns:rdf="http://www.w3.org/1999/02/22-rdf-syntax-ns#"
   xmlns:svg="http://www.w3.org/2000/svg"
   xmlns="http://www.w3.org/2000/svg"
   xmlns:sodipodi="http://sodipodi.sourceforge.net/DTD/sodipodi-0.dtd"
   xmlns:inkscape="http://www.inkscape.org/namespaces/inkscape"
   width="1000"
   height="600"
   viewBox="0 0 264.58333 158.75"
   version="1.1"
   id="svg5126"
   inkscape:version="0.92.2 (5c3e80d, 2017-08-06)"
   sodipodi:docname="ecoponies.svg">
  <defs
     id="defs5120" />
  <sodipodi:namedview
     id="base"
     pagecolor="#ffffff"
     bordercolor="#666666"
     borderopacity="1.0"
     inkscape:pageopacity="0.0"
     inkscape:pageshadow="2"
     inkscape:zoom="0.5"
     inkscape:cx="405.99184"
     inkscape:cy="250.2852"
     inkscape:document-units="px"
     inkscape:current-layer="layer1"
     showgrid="false"
     showborder="true"
     inkscape:window-width="2560"
     inkscape:window-height="1017"
     inkscape:window-x="-8"
     inkscape:window-y="-8"
     inkscape:window-maximized="1"
     units="px"
     inkscape:showpageshadow="true" />
  <metadata
     id="metadata5123">
    <rdf:RDF>
      <cc:Work
         rdf:about="">
        <dc:format>image/svg+xml</dc:format>
        <dc:type
           rdf:resource="http://purl.org/dc/dcmitype/StillImage" />
        <dc:title></dc:title>
      </cc:Work>
    </rdf:RDF>
  </metadata>
  <g
     inkscape:label="Layer 1"
     inkscape:groupmode="layer"
     id="layer1"
     transform="translate(0,-138.25001)">
    <rect
       style="opacity:1;fill:#ffffff;fill-opacity:0.99512197;stroke:none;stroke-width:0.68466121;stroke-miterlimit:4;stroke-dasharray:none"
       id="rect5671"
       width="264.8479"
       height="159.01459"
       x="-0.26521152"
       y="137.98622" />
    <g
       transform="matrix(5.2100004,0,0,5.2100004,63.43199,-1263.347)"
       id="layer1-5"
       inkscape:label="Layer 1">
      <circle
         r="12.924273"
         cy="283.77319"
         cx="13.238616"
         id="path815"
         style="fill:#c0d890;fill-opacity:1;stroke:#c0d898;stroke-width:0.60978568;stroke-opacity:0.98994978" />
      <path
         inkscape:connector-curvature="0"
         id="text819"
         d="m 11.828821,272.27268 c -0.405822,0 -0.778198,0.0663 -1.117853,0.19881 -0.339654,0.13223 -0.611247,0.32161 -0.8141582,0.56862 -0.1984996,0.24258 -0.2972336,0.52241 -0.2972336,0.84001 0,0.23383 0.068412,0.44517 0.2051548,0.63486 0.1411566,0.18974 0.342287,0.32238 0.602542,0.39737 -0.4763988,0.1191 -0.8385223,0.3141 -1.0855442,0.58315 -0.2426102,0.26477 -0.3634636,0.58665 -0.3634636,0.96602 0,0.2779 0.088915,0.52576 0.2697718,0.7463 0.1852673,0.22069 0.4666759,0.39547 0.84162,0.52341 0.374943,0.12348 0.839901,0.18569 1.3957,0.18569 0.40141,0 0.809824,-0.036 1.224468,-0.1066 0.413741,-0.0747 0.749596,-0.17255 1.009621,-0.29572 0.0106,0.0125 0.01797,0.025 0.02907,0.0372 0.24261,0.24258 0.580564,0.36505 1.012852,0.36505 0.269077,0 0.546821,-0.0685 0.833543,-0.20506 0.176536,-0.0856 0.33082,-0.20006 0.476541,-0.32795 0.08308,0.13036 0.179619,0.24883 0.305308,0.34086 0.185267,0.12785 0.406902,0.19225 0.667157,0.19225 0.264668,0 0.505937,-0.0725 0.722081,-0.2182 0.220554,-0.15004 0.39385,-0.3552 0.521772,-0.61547 0.127921,-0.26477 0.192232,-0.56452 0.192232,-0.89975 0,-0.24258 -0.04629,-0.46999 -0.138924,-0.68171 -0.09263,-0.21163 -0.231504,-0.38253 -0.416772,-0.51048 -0.185267,-0.13222 -0.408518,-0.19881 -0.668773,-0.19881 -0.269078,0 -0.510783,0.0763 -0.726927,0.22632 -0.216142,0.14567 -0.389003,0.3508 -0.516925,0.61548 -0.123511,0.26008 -0.184155,0.55805 -0.184155,0.89331 0,0.0813 0.01222,0.15817 0.0226,0.2357 -0.121375,0.11378 -0.243886,0.2135 -0.368309,0.28602 -0.207321,0.1191 -0.400686,0.17943 -0.581542,0.17943 -0.445521,0 -0.668773,-0.2557 -0.668773,-0.7673 0,-0.18537 0.02623,-0.35608 0.07915,-0.51047 0.05293,-0.15442 0.123395,-0.2754 0.211616,-0.36346 0.08822,-0.0925 0.182854,-0.13879 0.284308,-0.13879 0.05293,0 0.09307,0.0156 0.119537,0.0469 0.03089,0.0313 0.04685,0.0735 0.04685,0.13098 0,0.0572 -0.01188,0.11972 -0.03392,0.18568 -0.0044,0.0188 -0.01057,0.046 -0.01938,0.0856 -0.0088,0.0397 -0.01291,0.0756 -0.01291,0.1066 0,0.0706 0.02416,0.12504 0.07269,0.16474 0.05293,0.0397 0.121344,0.0597 0.205155,0.0597 0.132332,0 0.237218,-0.0644 0.316617,-0.19224 0.08381,-0.12786 0.125999,-0.28322 0.125999,-0.46846 0,-0.22507 -0.06841,-0.4081 -0.205155,-0.54924 -0.132332,-0.14567 -0.319546,-0.21975 -0.562156,-0.21975 -0.247021,0 -0.482576,0.0741 -0.707543,0.21975 -0.224967,0.14567 -0.408078,0.35286 -0.549233,0.62192 -0.141156,0.26914 -0.211616,0.58124 -0.211616,0.93854 0,0.0794 0.0068,0.15442 0.01616,0.22788 -0.210137,0.0691 -0.434579,0.13379 -0.691389,0.18912 -0.405821,0.0838 -0.792115,0.12598 -1.158237,0.12598 -0.555798,0 -0.962163,-0.0685 -1.218006,-0.20506 -0.255843,-0.1413 -0.3828488,-0.34846 -0.3828488,-0.62195 0,-0.16317 0.052441,-0.31438 0.1583088,-0.45552 0.110278,-0.14567 0.285189,-0.26602 0.523387,-0.35864 0.24261,-0.0925 0.546576,-0.14286 0.912698,-0.15192 0.264667,-0.003 0.397386,-0.15161 0.397386,-0.44264 0,-0.0925 -0.02007,-0.15911 -0.05977,-0.19881 -0.0397,-0.0397 -0.108112,-0.0619 -0.205155,-0.0663 -0.383766,-0.0125 -0.66151,-0.0856 -0.833543,-0.2182 -0.167621,-0.1366 -0.252,-0.30947 -0.252,-0.51691 0,-0.26914 0.112651,-0.48252 0.337617,-0.64132 0.224967,-0.1588 0.524831,-0.23914 0.899774,-0.23914 0.2779,0 0.476981,0.0519 0.59608,0.15349 0.1191,0.0969 0.177694,0.22413 0.177694,0.38287 0,0.0528 -0.01025,0.15317 -0.03231,0.29884 -0.02207,0.0881 -0.03392,0.1688 -0.03392,0.24383 0,0.11034 0.03604,0.19474 0.106615,0.25195 0.07058,0.0528 0.167259,0.0791 0.290769,0.0791 0.176446,0 0.311216,-0.0803 0.403849,-0.23914 0.09704,-0.16318 0.145386,-0.37459 0.145386,-0.63482 0,-0.37497 -0.136821,-0.67894 -0.41031,-0.91273 -0.273489,-0.2382 -0.683953,-0.35698 -1.230929,-0.35698 z m 5.355028,3.23564 c 0.123511,0 0.228396,0.0606 0.316617,0.18412 0.08822,0.12347 0.132464,0.30666 0.132464,0.54923 0,0.31319 -0.05244,0.55243 -0.158309,0.71563 -0.101457,0.16318 -0.228024,0.24383 -0.378003,0.24383 -0.132332,0 -0.241319,-0.0588 -0.329539,-0.17756 -0.08822,-0.1191 -0.132464,-0.30415 -0.132464,-0.55567 0,-0.3176 0.05039,-0.55683 0.151848,-0.71563 0.105867,-0.16318 0.238587,-0.24383 0.397387,-0.24383 z m -10.5049023,2.4683 c -0.5866761,0 -1.1257612,0.15693 -1.6153932,0.47009 -0.485221,0.30884 -0.8735658,0.77739 -1.1646987,1.40378 -0.2867208,0.62197 -0.4296946,1.38065 -0.4296946,2.27608 0,0.4764 0.068412,0.87706 0.2051548,1.20347 0.1367427,0.32642 0.3178058,0.56974 0.5427721,0.72854 0.2293779,0.1588 0.4788499,0.23758 0.7479271,0.23758 0.4896321,0 0.7894964,-0.30603 0.899774,-0.91916 l 0.2843107,-1.59441 c 0.5116877,-0.0353 0.9524749,-0.15192 1.3230072,-0.35055 0.3705324,-0.19849 0.6539931,-0.45573 0.8480813,-0.76892 0.1940888,-0.31319 0.2907721,-0.65727 0.2907721,-1.03223 0,-0.31319 -0.074561,-0.59297 -0.2245389,-0.84001 -0.1455674,-0.25133 -0.3647168,-0.44889 -0.6558493,-0.59447 -0.2867209,-0.14567 -0.6369775,-0.21976 -1.0516212,-0.21976 z m -0.2326164,0.72857 c 0.4014101,0 0.6971734,0.0925 0.8868508,0.2779 0.1940888,0.181 0.2923852,0.41641 0.2923852,0.70754 0,0.82488 -0.4526549,1.29556 -1.3569303,1.41025 l 0.2180775,-1.28425 c 0.00882,-0.0441 0.01291,-0.10065 0.01291,-0.1713 0,-0.1191 -0.032373,-0.20569 -0.09854,-0.25852 -0.061757,-0.0572 -0.166205,-0.0857 -0.3117724,-0.0857 -0.1279212,0 -0.2405721,0.0325 -0.3376174,0.0985 -0.092632,0.0619 -0.1512254,0.16818 -0.177693,0.31825 -0.1058675,0.57784 -0.1881963,1.0387 -0.2455392,1.38278 -0.057343,-0.003 -0.1380588,-0.0156 -0.2439263,-0.0341 -0.022069,-0.003 -0.056042,-0.006 -0.1001531,-0.006 -0.097043,0 -0.1736574,0.0281 -0.2310004,0.0857 -0.052932,0.0572 -0.079156,0.13566 -0.079156,0.23257 0,0.0925 0.020069,0.16911 0.059769,0.23101 0.0397,0.0572 0.1245139,0.0975 0.2568459,0.11941 -0.022069,-0.003 0.054123,0.006 0.2261551,0.0322 l -0.2196937,1.25195 c -0.057343,0.30447 -0.1401094,0.45552 -0.2503876,0.45552 -0.0794,0 -0.1637793,-0.0566 -0.2520006,-0.1713 -0.083811,-0.1191 -0.1542732,-0.28572 -0.2116162,-0.49757 -0.052932,-0.21162 -0.079153,-0.45342 -0.079153,-0.72691 0,-0.65286 0.090531,-1.23251 0.2713848,-1.73979 0.1852673,-0.51169 0.4449912,-0.91188 0.7802347,-1.19863 0.3396549,-0.28665 0.7362017,-0.42966 1.1905452,-0.42966 z m 9.2384337,0.31823 c -0.180853,0 -0.33203,0.0525 -0.455541,0.15817 -0.119099,0.1016 -0.179309,0.23007 -0.179309,0.38447 0,0.15442 0.04629,0.27539 0.138925,0.36345 0.09263,0.0838 0.231503,0.12598 0.416771,0.12598 0.189678,0 0.342468,-0.0519 0.457156,-0.15349 0.114689,-0.10597 0.171232,-0.24664 0.171232,-0.42322 0,-0.14567 -0.05039,-0.25821 -0.151848,-0.33764 -0.101457,-0.0794 -0.234176,-0.11785 -0.397387,-0.11785 z m 4.70241,1.39568 c -0.264667,0 -0.439576,0.0966 -0.523387,0.29072 -0.132332,0.30447 -0.239268,0.54564 -0.323079,0.72207 -0.0794,0.17662 -0.159678,0.32763 -0.239077,0.45555 -0.09229,0.14504 -0.251529,0.34995 -0.410311,0.55408 -0.126827,0.11316 -0.261928,0.21694 -0.41354,0.3004 -0.251432,0.13661 -0.476735,0.20507 -0.675234,0.20507 -0.308778,0 -0.518111,-0.10254 -0.628389,-0.30541 0.52051,-0.12785 0.888786,-0.29916 1.10493,-0.51532 0.220556,-0.22069 0.331156,-0.48393 0.331156,-0.78831 0,-0.26008 -0.07662,-0.46549 -0.231001,-0.61547 -0.154389,-0.15442 -0.359621,-0.23101 -0.615465,-0.23101 -0.286721,0 -0.546012,0.0766 -0.775388,0.23101 -0.224968,0.15442 -0.400312,0.36374 -0.528234,0.62841 -0.127921,0.2604 -0.192232,0.54371 -0.192232,0.84808 0,0.0944 0.009,0.18256 0.02101,0.26821 -0.07431,0.081 -0.16969,0.19475 -0.226155,0.24727 -0.119099,0.11034 -0.219446,0.1663 -0.298846,0.1663 -0.08381,0 -0.142404,-0.0359 -0.177693,-0.1066 -0.03529,-0.0707 -0.05331,-0.1713 -0.05331,-0.30353 0,-0.17193 0.05244,-0.50178 0.158308,-0.987 0.08381,-0.4014 0.126002,-0.65705 0.126002,-0.7673 -1e-6,-0.15005 -0.112651,-0.22444 -0.337618,-0.22444 -0.145567,0 -0.25045,0.025 -0.316616,0.0791 -0.06617,0.0528 -0.120226,0.14974 -0.159925,0.29072 -0.0794,0.26915 -0.145762,0.56074 -0.198694,0.87393 -0.04069,0.25883 -0.05482,0.45667 -0.06138,0.63807 -0.115573,0.12973 -0.241847,0.27478 -0.323078,0.3473 -0.1191,0.10597 -0.221932,0.16005 -0.310157,0.16005 -0.127921,0 -0.192232,-0.0885 -0.192232,-0.26477 0,-0.12348 0.04219,-0.37709 0.126002,-0.76083 0.09705,-0.44996 0.145386,-0.76168 0.145386,-0.9337 0,-0.28665 -0.142972,-0.4297 -0.429695,-0.4297 -0.145567,0 -0.306558,0.0503 -0.483002,0.15192 -0.172032,0.1016 -0.348994,0.27228 -0.529849,0.51048 -0.180857,0.2382 -0.343898,0.54626 -0.489465,0.92563 0.01763,-0.19412 0.03977,-0.35714 0.06623,-0.48947 0.02648,-0.13222 0.0625,-0.28727 0.106615,-0.46364 0.06617,-0.24695 0.09854,-0.40594 0.09854,-0.47652 0,-0.0619 -0.01801,-0.10379 -0.05331,-0.12598 -0.03529,-0.0219 -0.09593,-0.0322 -0.184155,-0.0322 -0.16321,0 -0.291831,0.0313 -0.384463,0.0919 -0.08822,0.0572 -0.152532,0.15005 -0.192232,0.2779 -0.07499,0.23727 -0.127465,0.48253 -0.168,0.73176 -0.190781,0.0416 -0.385199,0.0857 -0.534695,0.0953 -0.03529,-0.33967 -0.156142,-0.62354 -0.363463,-0.85293 -0.20291,-0.23382 -0.472454,-0.35054 -0.807697,-0.35054 -0.2734886,0 -0.5229612,0.0747 -0.7479271,0.22444 -0.2249672,0.14567 -0.4003117,0.3508 -0.5282339,0.61548 -0.1279212,0.26008 -0.1922319,0.55804 -0.1922319,0.89331 0,0.24695 0.04834,0.47643 0.1453861,0.68815 0.097043,0.21163 0.2379649,0.38093 0.4232325,0.50884 0.1896781,0.12786 0.41703,0.19225 0.6816962,0.19225 0.3131882,0 0.5929821,-0.11066 0.8400041,-0.33113 0.247021,-0.22507 0.41373,-0.52279 0.497542,-0.89331 0.184639,-0.006 0.356637,-0.0316 0.523387,-0.0663 -0.0019,0.0606 -0.01291,0.11816 -0.01291,0.17943 0,0.38818 0.03237,0.67002 0.09854,0.84648 0.07058,0.17631 0.189381,0.26477 0.357001,0.26477 0.136746,0 0.237093,-0.0344 0.29885,-0.10503 0.06616,-0.075 0.12271,-0.21757 0.171231,-0.42485 0.06617,-0.26915 0.152598,-0.52473 0.258462,-0.76734 0.110279,-0.24257 0.215161,-0.43598 0.316617,-0.58152 0.105868,-0.15005 0.188196,-0.22445 0.245539,-0.22445 0.04852,0 0.07269,0.0344 0.07269,0.10504 0,0.10597 -0.02826,0.29884 -0.08562,0.57668 -0.06175,0.31759 -0.09369,0.53719 -0.09369,0.6607 0,0.24695 0.05816,0.43629 0.172848,0.56862 0.114689,0.12785 0.283882,0.19224 0.508849,0.19224 0.2779,0 0.525322,-0.0744 0.741465,-0.22444 0.109941,-0.0747 0.215968,-0.1613 0.318233,-0.25696 0,0 0.0016,0 0.0016,0 0.02401,0.0591 0.03902,0.12692 0.07108,0.17756 0.132332,0.20288 0.341666,0.30353 0.628388,0.30353 0.305999,0 0.632387,-0.18255 0.975697,-0.52982 0.03863,0.0528 0.07696,0.10691 0.124386,0.15349 0.255842,0.25132 0.614302,0.37636 1.077468,0.37636 0.339654,0 0.657538,-0.0828 0.953081,-0.25039 0.07351,-0.041 0.130163,-0.0863 0.195461,-0.1291 0.0639,-0.0156 0.126746,-0.0444 0.185771,-0.10347 0.03187,-0.0313 0.05642,-0.0669 0.08723,-0.0985 0.08229,-0.0713 0.163817,-0.14223 0.226155,-0.21819 0.02079,-0.025 0.0312,-0.0581 0.04685,-0.0872 0.02391,-0.0281 0.05283,-0.0556 0.07592,-0.0856 0.136746,-0.17193 0.273567,-0.38749 0.41031,-0.64776 0.06176,0.0706 0.128115,0.15348 0.198693,0.25039 0.07058,0.0925 0.128737,0.191 0.172848,0.29228 0.04852,0.10159 0.07474,0.2085 0.07915,0.3231 l -0.179309,-0.0188 c -0.07499,-0.0125 -0.141351,-0.0188 -0.198694,-0.0188 -0.16321,0 -0.286114,0.0406 -0.369925,0.12441 -0.08381,0.0838 -0.125999,0.18412 -0.125999,0.29884 0,0.13223 0.06021,0.25102 0.179309,0.35699 0.123511,0.10597 0.298856,0.15817 0.528234,0.15817 0.1985,0 0.375461,-0.0503 0.529849,-0.15192 0.154389,-0.10159 0.273192,-0.23413 0.357002,-0.3974 0.08822,-0.16756 0.132464,-0.34295 0.132464,-0.52823 0,-0.15442 -0.03809,-0.29697 -0.11308,-0.42485 -0.07058,-0.13223 -0.175461,-0.28978 -0.316616,-0.47493 -0.09704,-0.1191 -0.169556,-0.21945 -0.218078,-0.29885 -0.04411,-0.0794 -0.06623,-0.15192 -0.06623,-0.21819 0,-0.11035 0.03852,-0.24508 0.117925,-0.40384 0.03088,-0.0572 0.05505,-0.11379 0.07269,-0.17131 0.01763,-0.0572 0.02748,-0.0994 0.02748,-0.12597 0,-0.0485 -0.02416,-0.0847 -0.0727,-0.1066 -0.04852,-0.0219 -0.134951,-0.0322 -0.258462,-0.0322 z m -2.736476,0.72048 c 0.0794,0 0.14166,0.0281 0.18577,0.0806 0.04852,0.0485 0.07269,0.11316 0.07269,0.19694 0,0.16317 -0.07456,0.3079 -0.224539,0.43132 -0.149978,0.12347 -0.35521,0.216 -0.615465,0.2779 v -0.0156 c 0,-0.26915 0.05449,-0.49847 0.16477,-0.68816 0.114689,-0.18974 0.25356,-0.28446 0.416771,-0.28446 z m -7.8362727,0.0469 h 0.032307 c -0.013223,0.0707 -0.019381,0.14098 -0.019381,0.21163 0,0.16755 0.036039,0.32657 0.1066145,0.47655 0.074989,0.15005 0.1798722,0.27071 0.3166172,0.36346 -0.03529,0.216 -0.105752,0.38124 -0.211616,0.49594 -0.1014535,0.11472 -0.2223069,0.17286 -0.3634632,0.17286 -0.1279212,0 -0.240572,-0.0644 -0.337617,-0.19225 -0.092632,-0.12785 -0.1389247,-0.31306 -0.1389247,-0.55567 0,-0.30885 0.056543,-0.54639 0.1712316,-0.714 0.1190997,-0.17193 0.26779,-0.25852 0.4442316,-0.25852 z m 7.7248107,2.74776 c -0.383766,0 -0.693882,0.30572 -0.932082,0.91432 -0.233788,0.60431 -0.39273,1.3331 -0.476541,2.18887 -0.326422,0.0353 -0.622185,0.15005 -0.886851,0.34408 -0.260256,0.18974 -0.465487,0.43707 -0.615464,0.74145 -0.03581,0.0716 -0.05351,0.15005 -0.08077,0.22444 -0.107343,0.0788 -0.205618,0.13254 -0.284308,0.13254 -0.110278,0 -0.16477,-0.0766 -0.16477,-0.231 0,-0.0441 0.018,-0.15474 0.05331,-0.33117 0.0397,-0.22038 0.05815,-0.35943 0.05815,-0.41676 0,-0.28665 -0.142973,-0.42969 -0.429695,-0.42969 -0.145567,0 -0.306558,0.0503 -0.483003,0.15192 -0.172032,0.10159 -0.347378,0.27071 -0.528233,0.50885 -0.180856,0.2382 -0.345513,0.54789 -0.491079,0.92725 0.01763,-0.19412 0.03976,-0.35714 0.06623,-0.48946 0.02648,-0.13223 0.0625,-0.28728 0.106614,-0.46361 0.06617,-0.24696 0.09854,-0.40598 0.09854,-0.47656 0,-0.0619 -0.01641,-0.10409 -0.05169,-0.12598 -0.03529,-0.0219 -0.09755,-0.0322 -0.18577,-0.0322 -0.163211,0 -0.291832,0.0313 -0.384464,0.0919 -0.08822,0.0572 -0.150916,0.15005 -0.190616,0.2779 -0.148899,0.47083 -0.221175,0.96921 -0.234232,1.48778 -0.125486,0.14317 -0.256952,0.29384 -0.340849,0.37152 -0.1191,0.10597 -0.219881,0.16005 -0.303695,0.16005 -0.05293,0 -0.09717,-0.0188 -0.132463,-0.0597 -0.03088,-0.0397 -0.04685,-0.0938 -0.04685,-0.16005 0,-0.1985 0.05201,-0.55079 0.153464,-1.05808 0.06617,-0.34848 0.09854,-0.56968 0.09854,-0.6623 0,-0.15442 -0.10855,-0.23101 -0.324694,-0.23101 -0.101454,0 -0.198137,0.009 -0.290769,0.025 -0.02207,-0.0969 -0.05033,-0.16193 -0.08562,-0.19725 -0.03088,-0.0397 -0.09519,-0.0597 -0.192232,-0.0597 -0.3043666,0 -0.5923619,0.0966 -0.8658505,0.29072 -0.2690778,0.18975 -0.4861775,0.44326 -0.6493879,0.76086 -0.1272929,0.24414 -0.1900656,0.50375 -0.2180775,0.77215 -0.2427134,0.16661 -0.4899484,0.3392 -0.7721579,0.55086 l 0.072692,-0.50241 c 0.074989,-0.49843 0.1192279,-0.81838 0.1324633,-0.95952 0.013223,-0.1191 -0.014598,-0.20975 -0.080769,-0.27133 -0.061757,-0.0663 -0.1404189,-0.0985 -0.2374617,-0.0985 H 6.1814056 c -0.1102782,0 -0.198759,0.0344 -0.2649234,0.10503 -0.066168,0.0707 -0.09854,0.16724 -0.09854,0.29072 -3e-7,0.13661 0.032373,0.23726 0.09854,0.29884 0.066167,0.0572 0.1607971,0.0856 0.2843076,0.0856 h 0.6752344 l -0.092079,0.80773 c -0.3308324,0.1366 -0.6487161,0.20506 -0.9530818,0.20506 -0.5469766,0 -0.9656437,-0.14473 -1.2567762,-0.43129 -0.2867209,-0.29103 -0.4313101,-0.7016 -0.4313101,-1.23095 0,-0.5161 0.08438,-0.95686 0.2520006,-1.32301 0.1676211,-0.37052 0.3888231,-0.64826 0.6623114,-0.83354 0.2778993,-0.18537 0.5777636,-0.2779 0.8997739,-0.2779 0.2646671,0 0.4518794,0.0503 0.562157,0.15193 0.1146889,0.10128 0.1712316,0.24601 0.1712316,0.43129 0,0.0706 -0.012316,0.16724 -0.038768,0.29071 -0.017631,0.10597 -0.027477,0.18037 -0.027477,0.22445 0,0.10159 0.036039,0.18162 0.1066177,0.23914 0.074989,0.0572 0.1716724,0.0856 0.2907721,0.0856 0.1764426,0 0.311216,-0.0781 0.4038481,-0.23258 0.097046,-0.1588 0.145386,-0.36814 0.145386,-0.62841 0,-0.397 -0.1290559,-0.71488 -0.3893098,-0.95308 -0.2558424,-0.24258 -0.6421381,-0.36346 -1.1582369,-0.36346 -0.5381541,0 -1.0252319,0.1388 -1.4619309,0.41679 -0.4322879,0.27352 -0.7722916,0.66183 -1.0193132,1.16468 -0.247021,0.49846 -0.3715405,1.07402 -0.3715405,1.72685 0,0.46758 0.1044483,0.87805 0.3117693,1.23095 0.207321,0.35289 0.4989844,0.62653 0.8739278,0.82063 0.3749437,0.18974 0.8079637,0.28446 1.3020072,0.28446 0.3352435,0 0.6772976,-0.0725 1.0257746,-0.21819 l -0.019381,0.12597 c -0.4631653,0.3573 -0.8232388,0.67518 -1.0790825,0.95308 -0.2514317,0.2779 -0.4226774,0.52167 -0.5153104,0.73339 -0.092632,0.21163 -0.1389247,0.42107 -0.1389247,0.62838 0,0.22507 0.070463,0.40604 0.2116162,0.5428 0.1411535,0.14098 0.3242675,0.21163 0.5492335,0.21163 0.4190547,0 0.7652097,-0.26165 1.038698,-0.78669 0.2734886,-0.52491 0.4967399,-1.24345 0.6687727,-2.15655 0.4359178,-0.30072 0.6983739,-0.47808 0.9530822,-0.64939 0.040566,0.11817 0.094211,0.22664 0.1696155,0.31823 0.1632104,0.1985 0.3823614,0.29728 0.65585,0.29728 0.3484767,0 0.6364729,-0.18506 0.8658514,-0.55571 0.06175,0.17193 0.152285,0.30885 0.271385,0.41032 0.12351,0.0969 0.25828,0.14536 0.403848,0.14536 0.189678,0 0.386707,-0.0766 0.589619,-0.23101 0.08312,-0.0631 0.162891,-0.13661 0.242307,-0.21163 0.01269,0.0597 0.02166,0.13223 0.03877,0.17755 0.07058,0.17631 0.190997,0.26509 0.358618,0.26509 0.136742,0 0.235476,-0.0344 0.297233,-0.10504 0.06617,-0.075 0.12271,-0.21756 0.171232,-0.42485 0.06617,-0.26914 0.152598,-0.52469 0.258462,-0.76733 0.105867,-0.24258 0.212366,-0.43595 0.318232,-0.58153 0.110279,-0.15004 0.198759,-0.22444 0.264927,-0.22444 0.04852,0 0.07269,0.0344 0.07269,0.10503 0,0.0313 -0.0041,0.091 -0.01291,0.17943 -0.01322,0.0663 -0.02101,0.13254 -0.02101,0.19881 0,0.20288 0.06021,0.3639 0.179309,0.483 0.12351,0.1191 0.302522,0.17755 0.53631,0.17755 0.139463,0 0.270422,-0.0325 0.397387,-0.0825 0.0081,0.30041 0.08689,0.55186 0.250385,0.7447 0.176443,0.1985 0.399695,0.29728 0.668773,0.29728 0.185267,0 0.346259,-0.04 0.483002,-0.11941 0.141157,-0.0794 0.304198,-0.23476 0.489465,-0.46849 0.176442,0.39259 0.432068,0.58803 0.767311,0.58803 0.211732,0 0.426783,-0.0766 0.642927,-0.23101 0.122207,-0.0897 0.236383,-0.19256 0.347309,-0.30197 0.03917,0.0541 0.07773,0.10909 0.126002,0.15661 0.255843,0.25133 0.615917,0.3764 1.079082,0.3764 0.339656,0 0.655924,-0.0844 0.951467,-0.25196 0.130544,-0.0728 0.242667,-0.14911 0.34731,-0.22788 0.01422,0.0756 0.02616,0.15974 0.04685,0.21475 0.07058,0.17631 0.190994,0.26509 0.358618,0.26509 0.136742,0 0.235476,-0.0344 0.297233,-0.10504 0.06617,-0.075 0.12271,-0.21756 0.171232,-0.42485 0.06617,-0.26914 0.152597,-0.52469 0.258462,-0.76733 0.110278,-0.24258 0.216777,-0.43595 0.318233,-0.58153 0.105867,-0.15004 0.18658,-0.22444 0.243923,-0.22444 0.04852,0 0.07269,0.0344 0.07269,0.10503 0,0.0969 -0.02623,0.32235 -0.07916,0.67524 -0.06175,0.40582 -0.09208,0.69747 -0.09208,0.87393 0,0.15005 0.03237,0.26102 0.09854,0.33598 0.06617,0.075 0.172666,0.11316 0.318232,0.11316 0.154388,0 0.264989,-0.0344 0.331156,-0.10503 0.07058,-0.075 0.105001,-0.19756 0.105001,-0.36508 0,-0.29541 0.01391,-0.56143 0.04039,-0.79963 0.02648,-0.24257 0.06089,-0.49825 0.105001,-0.7673 0.04852,-0.3176 0.07269,-0.5347 0.07269,-0.64939 0,-0.14129 -0.03647,-0.24758 -0.111463,-0.31826 -0.07058,-0.075 -0.177077,-0.11159 -0.318232,-0.11159 -0.145568,0 -0.306559,0.0503 -0.483003,0.15192 -0.172032,0.10159 -0.347379,0.27071 -0.528233,0.50885 -0.180857,0.2382 -0.345514,0.54789 -0.49108,0.92725 0.01763,-0.19412 0.03977,-0.35714 0.06623,-0.48946 0.02648,-0.13223 0.0625,-0.28728 0.106615,-0.46361 0.06617,-0.24696 0.09854,-0.40598 0.09854,-0.47656 0,-0.0619 -0.01641,-0.10409 -0.05169,-0.12598 -0.03529,-0.0219 -0.09755,-0.0322 -0.185771,-0.0322 -0.16321,0 -0.291831,0.0313 -0.384463,0.0919 -0.08822,0.0572 -0.150916,0.15005 -0.190616,0.2779 -0.148431,0.46933 -0.220791,0.96614 -0.234233,1.48293 -0.152482,0.15349 -0.319688,0.28947 -0.51208,0.39575 -0.251432,0.1366 -0.475119,0.20506 -0.673619,0.20506 -0.308778,0 -0.51811,-0.10065 -0.628388,-0.30353 0.52051,-0.12785 0.888785,-0.29915 1.104929,-0.51532 0.220554,-0.22069 0.32954,-0.48393 0.32954,-0.7883 0,-0.2604 -0.07661,-0.46549 -0.231,-0.61548 -0.154389,-0.15442 -0.359621,-0.23101 -0.615464,-0.23101 -0.286721,0 -0.544397,0.0766 -0.773774,0.23101 -0.224967,0.15442 -0.401927,0.36374 -0.529849,0.62842 -0.127921,0.26039 -0.192232,0.5437 -0.192232,0.84807 0,0.091 0.0083,0.17568 0.01938,0.25852 -0.08238,0.0878 -0.185595,0.21069 -0.247155,0.26321 -0.123511,0.10597 -0.24598,0.16005 -0.365079,0.16005 -0.09263,0 -0.169247,-0.056 -0.231,-0.1663 -0.05734,-0.11035 -0.09543,-0.29353 -0.113079,-0.54924 0.405821,-0.69696 0.729856,-1.37536 0.972467,-2.03701 0.24261,-0.66167 0.365079,-1.24089 0.365079,-1.73495 0,-0.34848 -0.06431,-0.60819 -0.192232,-0.78024 -0.123511,-0.17193 -0.280404,-0.25852 -0.470079,-0.25852 z m -0.07269,0.64939 c 0.0397,0 0.07207,0.0463 0.09854,0.1388 0.03088,0.0925 0.04685,0.22163 0.04685,0.38931 0,0.65286 -0.247421,1.518 -0.741465,2.59434 0.02648,-0.52495 0.06865,-1.02798 0.126001,-1.50879 0.06175,-0.4808 0.134267,-0.86914 0.218078,-1.1647 0.08381,-0.3001 0.16819,-0.44908 0.252001,-0.44908 z m -7.337117,3.09025 -0.243923,1.21638 c -0.0397,0.18975 -0.1040107,0.34248 -0.192232,0.45717 -0.088221,0.11473 -0.1808033,0.17131 -0.2778493,0.17131 -0.097043,0 -0.1736574,-0.0325 -0.2310003,-0.0985 -0.052932,-0.0663 -0.079153,-0.16693 -0.079153,-0.30353 0,-0.24695 0.046293,-0.48215 0.1389247,-0.70269 0.092632,-0.22069 0.2155361,-0.39591 0.3699253,-0.52823 0.1587996,-0.1366 0.3300434,-0.20725 0.5153096,-0.21163 z m 5.947879,0.0453 c -0.0088,0.2382 -0.01291,0.41106 -0.01291,0.51691 0,0.2954 0.02213,0.56142 0.06623,0.79962 -0.127922,0.18537 -0.234424,0.31391 -0.318233,0.38447 -0.08381,0.0663 -0.16819,0.0985 -0.252001,0.0985 -0.220556,0 -0.32954,-0.16099 -0.32954,-0.48303 0,-0.30447 0.07866,-0.58006 0.237461,-0.82707 0.163211,-0.25133 0.366393,-0.41447 0.609004,-0.48947 z m 3.106401,0 c 0.0794,0 0.14166,0.025 0.18577,0.0791 0.04852,0.0485 0.07269,0.11473 0.07269,0.19882 0,0.16317 -0.07456,0.30791 -0.224539,0.43132 -0.149978,0.12347 -0.35521,0.216 -0.615465,0.2779 v -0.0156 c 0,-0.26915 0.05449,-0.49847 0.16477,-0.68815 0.114689,-0.18975 0.253561,-0.28447 0.416771,-0.28447 z m -12.6582221,3.15648 c -0.1190997,0.57784 -0.247718,0.9965 -0.3844636,1.25677 -0.1367427,0.2604 -0.2616974,0.39094 -0.3763866,0.39094 -0.1235105,0 -0.1857706,-0.0863 -0.1857706,-0.25852 0,-0.17631 0.072513,-0.38165 0.2180775,-0.61544 0.1499782,-0.22945 0.3932989,-0.48706 0.7285424,-0.77378 z"
         style="font-style:normal;font-variant:normal;font-weight:normal;font-stretch:normal;font-size:2.11666656px;line-height:1.25;font-family:pacifico;-inkscape-font-specification:pacifico;letter-spacing:0px;word-spacing:0px;fill:#000000;fill-opacity:1;stroke:none;stroke-width:0.82708132" />
      <circle
         r="12.363121"
         cy="283.77319"
         cx="13.238616"
         id="circle832"
         style="fill:#c0d8d5;fill-opacity:0.26130652;stroke:#c0d898;stroke-width:0.58330959;stroke-opacity:0.98994978" />
    </g>
  </g>
</svg>
