<?xml version="1.0" encoding="UTF-8" standalone="no"?>
<!-- Created with Inkscape (http://www.inkscape.org/) -->

<svg
   xmlns:dc="http://purl.org/dc/elements/1.1/"
   xmlns:cc="http://creativecommons.org/ns#"
   xmlns:rdf="http://www.w3.org/1999/02/22-rdf-syntax-ns#"
   xmlns:svg="http://www.w3.org/2000/svg"
   xmlns="http://www.w3.org/2000/svg"
   xmlns:sodipodi="http://sodipodi.sourceforge.net/DTD/sodipodi-0.dtd"
   xmlns:inkscape="http://www.inkscape.org/namespaces/inkscape"
   width="1000"
   height="600"
   viewBox="0 0 264.58333 158.75"
   version="1.1"
   id="svg8"
   inkscape:version="0.92.1 r15371"
   sodipodi:docname="hVr.svg">
  <defs
     id="defs2" />
  <sodipodi:namedview
     id="base"
     pagecolor="#f4f4f4"
     bordercolor="#666666"
     borderopacity="1.0"
     inkscape:pageopacity="0"
     inkscape:pageshadow="2"
     inkscape:zoom="0.70710678"
     inkscape:cx="469.41788"
     inkscape:cy="180.04628"
     inkscape:document-units="px"
     inkscape:current-layer="layer1"
     showgrid="false"
     units="px"
     showborder="true"
     inkscape:window-width="1920"
     inkscape:window-height="1001"
     inkscape:window-x="-9"
     inkscape:window-y="-9"
     inkscape:window-maximized="1"
     inkscape:showpageshadow="false" />
  <metadata
     id="metadata5">
    <rdf:RDF>
      <cc:Work
         rdf:about="">
        <dc:format>image/svg+xml</dc:format>
        <dc:type
           rdf:resource="http://purl.org/dc/dcmitype/StillImage" />
        <dc:title></dc:title>
      </cc:Work>
    </rdf:RDF>
  </metadata>
  <g
     inkscape:label="Layer 1"
     inkscape:groupmode="layer"
     id="layer1"
     transform="translate(0,-138.24998)">
    <rect
       style="opacity:1;fill:#ececec;fill-opacity:0.99512197;stroke:#ffffff;stroke-width:0.62900001;stroke-miterlimit:4;stroke-dasharray:none"
       id="rect5632"
       width="375.29987"
       height="228.62234"
       x="-41.907864"
       y="114.40144" />
    <path
       style="opacity:1;fill:#2c89a0;fill-opacity:0.99512197;stroke:none;stroke-width:0.6304906;stroke-miterlimit:4;stroke-dasharray:none"
       d="m 132.28166,155.09841 -63.750362,44.927 0.100618,21.33381 H 195.93135 l 0.10066,-21.33381 z m -63.469651,104.32036 0.06319,13.29955 H 195.68824 l 0.0629,-13.29955 z"
       id="path4494"
       inkscape:connector-curvature="0" />
    <path
       style="opacity:1;fill:#5fbcd3;fill-opacity:0.99512197;stroke:none;stroke-width:0.6304906;stroke-miterlimit:4;stroke-dasharray:none"
       d="m 132.28166,162.54986 -63.750362,44.92702 0.06694,14.19285 H 195.96521 l 0.0666,-14.19285 z m -63.503421,97.17937 0.0969,20.44057 H 195.68818 l 0.0969,-20.44057 z"
       id="path4491"
       inkscape:connector-curvature="0" />
    <g
       aria-label="HomeViewer"
       transform="matrix(0.56454548,0,0,0.54759729,450.24071,199.30901)"
       style="font-style:normal;font-weight:normal;font-size:40px;line-height:1.25;font-family:sans-serif;letter-spacing:0px;word-spacing:0px;fill:#000000;fill-opacity:1;stroke:none"
       id="flowRoot4496">
      <path
         d="m -747.56667,50.761548 v 43.133333 h 3.03334 V 73.228215 h 26.8 v 20.666666 h 3.06666 V 48.028215 h -3.06666 v 22.466666 h -26.8 V 48.028215 h -3.3 z"
         style="font-style:normal;font-variant:normal;font-weight:100;font-stretch:normal;font-size:64px;font-family:Altair;-inkscape-font-specification:'Altair Thin'"
         id="path4522"
         inkscape:connector-curvature="0" />
      <path
         d="m -690.36667,59.728215 q -6.66666,0 -10.2,3.533333 -4,4 -4,12.533333 v 2.733334 q 0,7 2.56667,10.933333 2.13333,3.233333 5.73333,4.433333 2.5,0.833334 5.86667,0.833334 6.66667,0 10.23333,-3.566667 3.96667,-3.966667 3.96667,-12.5 v -2.733333 q 0,-7 -2.56667,-10.933334 -2.1,-3.233333 -5.7,-4.433333 -2.53333,-0.833333 -5.9,-0.833333 z M -701.6,77.194881 q 0,-4.433333 0.73333,-7.233333 0.9,-3.433333 3.23334,-5.3 2.6,-2.066667 7.23333,-2.066667 3.3,0 5.46667,1 2.2,0.966667 3.5,2.933334 1.23333,1.833333 1.73333,4.5 0.53333,2.633333 0.53333,6.233333 0,3.266667 -0.43333,5.8 -0.4,2.533333 -1.5,4.4 -2.6,4.4 -9.26667,4.4 -3.3,0 -5.5,-0.966667 -2.16666,-1 -3.46666,-2.966666 -1.23334,-1.833334 -1.76667,-4.466667 -0.5,-2.666667 -0.5,-6.266667 z"
         style="font-style:normal;font-variant:normal;font-weight:100;font-stretch:normal;font-size:64px;font-family:Altair;-inkscape-font-specification:'Altair Thin'"
         id="path4524"
         inkscape:connector-curvature="0" />
      <path
         d="m -627.69167,82.461548 q 0,3.4 0.3,5.433333 0.46667,3.1 1.86667,4.766667 1.73333,2.066667 4.9,2.066667 1.53333,0 2.73333,-0.566667 1.13334,-0.533333 1.96667,-1.266667 0.86667,-0.733333 1.56667,-1.733333 l -1.16667,-2.066667 q -1.13333,1.2 -1.96667,1.766667 -1.46666,1 -2.96666,1 -1.23334,0 -2,-0.466667 -0.76667,-0.466666 -1.23334,-1.533333 -0.5,-1.066667 -0.73333,-2.8 -0.2,-1.733333 -0.23333,-4.466667 v -8.533333 q 0,-3.466667 -0.33334,-5.6 -0.56666,-3.7 -2.23333,-6 -2.03333,-2.766667 -5.8,-2.766667 -4.03333,0 -7.23333,1.666667 -3.2,1.633333 -5.43334,4.566667 -0.93333,-3.333334 -2.96666,-4.8 -1.96667,-1.4 -5.03334,-1.4 -3.43333,0 -6.66666,1.566666 -2.9,1.466667 -4.53334,3.766667 l 0.0333,-4.8 -3.06667,0.633333 v 33 h 3.03333 V 69.228215 q 0.5,-1.2 1.5,-2.366667 1.03334,-1.2 2.4,-2.133333 3.13334,-2.133334 6.7,-2.133334 3.06667,0 4.63334,2.3 1.3,1.966667 1.73333,5.633334 0.16667,1.466666 0.2,3.066666 0.0667,1.566667 0.0667,3.9 v 16.4 h 3 V 69.528215 q 0.5,-1.333334 1.46666,-2.566667 0.96667,-1.266667 2.33334,-2.233333 3,-2.133334 6.93333,-2.133334 2.9,0 4.43333,2.133334 1.13334,1.666666 1.6,4.933333 0.2,1.766667 0.2,4.366667 v 1.133333 z"
         style="font-style:normal;font-variant:normal;font-weight:100;font-stretch:normal;font-size:64px;font-family:Altair;-inkscape-font-specification:'Altair Thin'"
         id="path4526"
         inkscape:connector-curvature="0" />
      <path
         d="m -584.85833,75.128215 q 0.3,-1.733334 0.3,-3.233334 0,-6.566666 -4.2,-9.666666 -3.4,-2.466667 -9.36667,-2.466667 -7,0 -10.63333,3.966667 -3.76667,4.133333 -3.76667,12.6 0,5.033333 0.8,8.533333 0.8,3.466667 2.5,5.633333 1.7,2.166667 4.46667,3.2 2.8,1.033334 6.83333,1.033334 3.46667,0 7.26667,-1.166667 3.1,-0.9 5,-2.033333 l -0.9,-2.533334 q -2.26667,1 -4.86667,1.8 -3.5,1.066667 -6.53333,1.066667 -2.76667,0 -4.86667,-0.7 -2.1,-0.7 -3.53333,-2.3 -3.13334,-3.5 -3.13334,-11.633333 l 24.33334,-0.933334 z m -24.5,-0.766667 q 0.56666,-6.2 3.2,-9 2.63333,-2.766667 7.66666,-2.766667 3.03334,0 4.9,0.5 2.93334,0.8 4.46667,2.966667 1.46667,2.1 1.46667,5.733333 0,1.133334 -0.0667,1.766667 z"
         style="font-style:normal;font-variant:normal;font-weight:100;font-stretch:normal;font-size:64px;font-family:Altair;-inkscape-font-specification:'Altair Thin'"
         id="path4528"
         inkscape:connector-curvature="0" />
      <path
         d="m -562.25,90.228215 h -0.23333 l -0.93334,-4.266667 -14.8,-37.933333 h -3.7 l 1.46667,2.733333 16.63333,43.133333 h 2.7 l 17.9,-45.866666 h -3.2 L -561.35,85.994881 Z"
         style="font-style:normal;font-variant:normal;font-weight:100;font-stretch:normal;font-size:64px;font-family:Altair;-inkscape-font-specification:'Altair Thin'"
         id="path4530"
         inkscape:connector-curvature="0" />
      <path
         d="m -538.44167,51.228215 q 0,1.1 0.8,1.766666 0.8,0.666667 2.1,0.666667 1.2,0 1.96667,-0.666667 0.76667,-0.7 0.76667,-1.766666 0,-1.066667 -0.76667,-1.766667 -0.73333,-0.7 -1.96667,-0.7 -1.26666,0 -2.1,0.7 -0.8,0.7 -0.8,1.766667 z m 1.36667,9.333333 h -3.4 v 2.866667 h 3.6 v 17.966666 1.166667 q 0,2.733333 0.2,4.566667 0.4,3.466666 1.76667,5.266666 1.73333,2.333334 5.1,2.333334 2.16666,0 3.83333,-0.766667 1.66667,-0.766667 3.43333,-2.466667 l -1.16666,-2.066666 q -1.26667,1.066666 -2.8,1.766666 -1.5,0.666667 -3.1,0.666667 -1.3,0 -2.1,-0.5 -0.76667,-0.5 -1.23334,-1.7 -0.46666,-1.166667 -0.66666,-3.1 -0.2,-1.933333 -0.2,-5.066667 V 59.928215 Z"
         style="font-style:normal;font-variant:normal;font-weight:100;font-stretch:normal;font-size:64px;font-family:Altair;-inkscape-font-specification:'Altair Thin'"
         id="path4532"
         inkscape:connector-curvature="0" />
      <path
         d="m -492.85833,75.128215 q 0.3,-1.733334 0.3,-3.233334 0,-6.566666 -4.2,-9.666666 -3.4,-2.466667 -9.36667,-2.466667 -7,0 -10.63333,3.966667 -3.76667,4.133333 -3.76667,12.6 0,5.033333 0.8,8.533333 0.8,3.466667 2.5,5.633333 1.7,2.166667 4.46667,3.2 2.8,1.033334 6.83333,1.033334 3.46667,0 7.26667,-1.166667 3.1,-0.9 5,-2.033333 l -0.9,-2.533334 q -2.26667,1 -4.86667,1.8 -3.5,1.066667 -6.53333,1.066667 -2.76667,0 -4.86667,-0.7 -2.1,-0.7 -3.53333,-2.3 -3.13334,-3.5 -3.13334,-11.633333 l 24.33334,-0.933334 z m -24.5,-0.766667 q 0.56666,-6.2 3.2,-9 2.63333,-2.766667 7.66666,-2.766667 3.03334,0 4.9,0.5 2.93334,0.8 4.46667,2.966667 1.46667,2.1 1.46667,5.733333 0,1.133334 -0.0667,1.766667 z"
         style="font-style:normal;font-variant:normal;font-weight:100;font-stretch:normal;font-size:64px;font-family:Altair;-inkscape-font-specification:'Altair Thin'"
         id="path4534"
         inkscape:connector-curvature="0" />
      <path
         d="m -465.18333,60.894881 q 0.66666,2.1 1.2,4.333334 1.23333,5.133333 1.23333,9.6 0,3.933333 -0.9,7.133333 -0.9,3.166667 -2.7,5.366667 -1.86667,2.266666 -4.6,3.433333 -2.73333,1.166667 -6.26667,1.1 l -8.46666,-31.3 h -4.8 v 2.866667 h 2.4 l 8.46666,31.2 2.6,0.1 q 4.83334,0 8.43334,-1.866667 4.1,-2.1 6.36666,-6.3 l 2.2,8.066667 q 1.3,0.1 1.56667,0.1 h 1.03333 q 3.5,0 6.56667,-1.066667 3.1,-1.066667 5.43333,-3.3 2.5,-2.433333 3.9,-6.3 1.4,-3.866667 1.4,-9.233333 0,-2.9 -0.56666,-6.566667 -0.56667,-3.366667 -1.8,-7.933333 l -3.1,0.566666 q 0.66666,2.1 1.2,4.333334 1.23333,5.133333 1.23333,9.6 0,3.933333 -0.9,7.133333 -0.9,3.166667 -2.7,5.366667 -1.86667,2.266666 -4.6,3.433333 -2.73333,1.166667 -6.26667,1.1 l -2.8,-10.3 q 0.7,-2.966667 0.7,-6.733333 0,-2.9 -0.56666,-6.566667 -0.56667,-3.366667 -1.8,-7.933333 z"
         style="font-style:normal;font-variant:normal;font-weight:100;font-stretch:normal;font-size:64px;font-family:Altair;-inkscape-font-specification:'Altair Thin'"
         id="path4536"
         inkscape:connector-curvature="0" />
      <path
         d="m -406.73333,75.128215 q 0.3,-1.733334 0.3,-3.233334 0,-6.566666 -4.2,-9.666666 -3.4,-2.466667 -9.36667,-2.466667 -7,0 -10.63333,3.966667 -3.76667,4.133333 -3.76667,12.6 0,5.033333 0.8,8.533333 0.8,3.466667 2.5,5.633333 1.7,2.166667 4.46667,3.2 2.8,1.033334 6.83333,1.033334 3.46667,0 7.26667,-1.166667 3.1,-0.9 5,-2.033333 l -0.9,-2.533334 q -2.26667,1 -4.86667,1.8 -3.5,1.066667 -6.53333,1.066667 -2.76667,0 -4.86667,-0.7 -2.1,-0.7 -3.53333,-2.3 -3.13334,-3.5 -3.13334,-11.633333 l 24.33334,-0.933334 z m -24.5,-0.766667 q 0.56666,-6.2 3.2,-9 2.63333,-2.766667 7.66666,-2.766667 3.03334,0 4.9,0.5 2.93334,0.8 4.46667,2.966667 1.46667,2.1 1.46667,5.733333 0,1.133334 -0.0667,1.766667 z"
         style="font-style:normal;font-variant:normal;font-weight:100;font-stretch:normal;font-size:64px;font-family:Altair;-inkscape-font-specification:'Altair Thin'"
         id="path4538"
         inkscape:connector-curvature="0" />
      <path
         d="m -378.59167,60.628215 q -0.56666,-0.2 -1.43333,-0.433334 -1.8,-0.466666 -3.43333,-0.466666 -1.7,0 -3.46667,0.566666 -1.73333,0.533334 -3.33333,1.466667 -1.5,0.866667 -2.73334,2.033333 -1.2,1.133334 -1.9,2.266667 v -5.833333 l -3.03333,0.666666 v 33 h 3.03333 V 72.161548 q 0,-1.666667 1,-3.366667 1,-1.733333 2.66667,-3.166666 1.63333,-1.4 3.56667,-2.2 1.93333,-0.833334 3.7,-0.833334 1.6,0 2.63333,0.266667 1.03333,0.233333 2.13333,0.7 z"
         style="font-style:normal;font-variant:normal;font-weight:100;font-stretch:normal;font-size:64px;font-family:Altair;-inkscape-font-specification:'Altair Thin'"
         id="path4540"
         inkscape:connector-curvature="0" />
    </g>
    <path
       style="opacity:1;fill:#164450;fill-opacity:0.99512197;stroke:none;stroke-width:0.31788972;stroke-miterlimit:4;stroke-dasharray:none"
       d="m 132.28166,180.46173 c -4.33006,0 -8.66001,1.12675 -11.85775,3.38031 -6.39551,4.50709 -7.32889,21.87809 -7.32889,21.87809 0,0 11.28137,-0.72399 19.18664,-0.72399 7.90526,0 19.18664,0.72399 19.18664,0.72399 0,0 -0.93339,-17.371 -7.32888,-21.87809 -3.19776,-2.25356 -7.52769,-3.38031 -11.85776,-3.38031 z m -7.74652,5.98736 h 7.53122 v 5.81434 h -7.53122 z m 7.96182,0 h 7.53121 v 5.81434 h -7.53121 z m -7.96182,6.232 h 7.53122 v 5.81431 h -7.53122 z m 7.96182,0 h 7.53121 v 5.81431 h -7.53121 z"
       id="path4508"
       inkscape:connector-curvature="0" />
  </g>
</svg>
