<?xml version="1.0" encoding="UTF-8" standalone="no"?>
<!-- Created with Inkscape (http://www.inkscape.org/) -->

<svg
   xmlns:dc="http://purl.org/dc/elements/1.1/"
   xmlns:cc="http://creativecommons.org/ns#"
   xmlns:rdf="http://www.w3.org/1999/02/22-rdf-syntax-ns#"
   xmlns:svg="http://www.w3.org/2000/svg"
   xmlns="http://www.w3.org/2000/svg"
   xmlns:sodipodi="http://sodipodi.sourceforge.net/DTD/sodipodi-0.dtd"
   xmlns:inkscape="http://www.inkscape.org/namespaces/inkscape"
   width="400"
   height="400"
   viewBox="0 0 105.83333 105.83334"
   version="1.1"
   id="svg8"
   inkscape:version="0.92.1 r15371"
   sodipodi:docname="innovate.svg">
  <defs
     id="defs2" />
  <sodipodi:namedview
     id="base"
     pagecolor="#ffffff"
     bordercolor="#666666"
     borderopacity="1.0"
     inkscape:pageopacity="1"
     inkscape:pageshadow="2"
     inkscape:zoom="1.4142136"
     inkscape:cx="113.69097"
     inkscape:cy="163.39551"
     inkscape:document-units="px"
     inkscape:current-layer="layer1"
     showgrid="false"
     units="px"
     showborder="true"
     inkscape:snap-global="false"
     showguides="false"
     inkscape:guide-bbox="true"
     inkscape:window-width="1920"
     inkscape:window-height="1001"
     inkscape:window-x="-9"
     inkscape:window-y="-9"
     inkscape:window-maximized="1"
     inkscape:pagecheckerboard="false" />
  <metadata
     id="metadata5">
    <rdf:RDF>
      <cc:Work
         rdf:about="">
        <dc:format>image/svg+xml</dc:format>
        <dc:type
           rdf:resource="http://purl.org/dc/dcmitype/StillImage" />
        <dc:title></dc:title>
      </cc:Work>
    </rdf:RDF>
  </metadata>
  <g
     inkscape:label="Layer 1"
     inkscape:groupmode="layer"
     id="layer1"
     transform="translate(0,-191.16665)">
    <circle
       style="opacity:1;fill:#f9f9f9;fill-opacity:1;stroke:none;stroke-width:1.17570102;stroke-miterlimit:4;stroke-dasharray:none"
       id="path4485"
       cx="53.083355"
       cy="244.19859"
       r="52.916668" />
    <text
       xml:space="preserve"
       style="font-style:normal;font-weight:normal;font-size:10.58333397px;line-height:1.25;font-family:sans-serif;letter-spacing:0px;word-spacing:0px;fill:#43687a;fill-opacity:1;stroke:none;stroke-width:0.26458335"
       x="33.03091"
       y="212.15251"
       id="text5156"><tspan
         sodipodi:role="line"
         id="tspan5154"
         x="33.03091"
         y="212.15251"
         style="font-style:normal;font-variant:normal;font-weight:300;font-stretch:normal;font-family:Lato;-inkscape-font-specification:'Lato Light';fill:#43687a;fill-opacity:1;stroke-width:0.26458335">Innovate</tspan></text>
    <g
       id="g5886"
       transform="translate(64.460446,110.97568)">
      <path
         inkscape:connector-curvature="0"
         id="path4498"
         d="m -40.215308,125.18396 v -14.16181 h 26.205435 26.205464 v 14.16181 14.16183 h -26.205464 -26.205435 z"
         style="opacity:1;fill:#000000;fill-opacity:0;stroke:none;stroke-width:0.18817171;stroke-miterlimit:4;stroke-dasharray:none" />
      <path
         inkscape:connector-curvature="0"
         id="rect5783"
         d="m -44.327198,112.27901 h 65.900215 c 3.732514,0 6.737398,3.00488 6.737398,6.7374 v 32.84484 c 0,3.73252 -3.004884,6.7374 -6.737398,6.7374 h -65.900215 c -3.732514,0 -6.737398,-3.00488 -6.737398,-6.7374 v -32.84484 c 0,-3.73252 3.004884,-6.7374 6.737398,-6.7374 z"
         style="opacity:1;fill:#0a1612;fill-opacity:1;stroke:none;stroke-width:0.29791945;stroke-linecap:round;stroke-linejoin:round;stroke-miterlimit:4;stroke-dasharray:none;stroke-opacity:1" />
      <path
         sodipodi:nodetypes="csssscc"
         inkscape:connector-curvature="0"
         id="rect5788"
         d="m 23.832848,122.71847 v 28.27852 c 0,2.66174 -1.497744,4.80459 -3.358168,4.80459 h -63.70353 c -1.860435,0 -3.358179,-2.14285 -3.358179,-4.80459 v -28.27852 z"
         style="opacity:1;fill:#e1e1e1;fill-opacity:1;stroke:none;stroke-width:0.40858099;stroke-linecap:round;stroke-linejoin:round;stroke-miterlimit:4;stroke-dasharray:none;stroke-opacity:1" />
      <path
         inkscape:connector-curvature="0"
         id="rect5791"
         d="m -44.042956,115.90037 c 1.40941,0 2.544072,1.13465 2.544072,2.54407 0,1.40941 -1.134662,2.54407 -2.544072,2.54407 -1.409422,0 -2.544073,-1.13466 -2.544073,-2.54407 0,-1.40942 1.134651,-2.54407 2.544073,-2.54407 z"
         style="opacity:1;fill:#e1e1e1;fill-opacity:1;stroke:none;stroke-width:0.28798881;stroke-linecap:round;stroke-linejoin:round;stroke-miterlimit:4;stroke-dasharray:none;stroke-opacity:1" />
      <path
         inkscape:connector-curvature="0"
         id="rect5793"
         d="m -37.530138,115.90037 c 1.409421,0 2.544073,1.13465 2.544073,2.54407 0,1.40941 -1.134652,2.54407 -2.544073,2.54407 -1.409411,0 -2.544073,-1.13466 -2.544073,-2.54407 0,-1.40942 1.134662,-2.54407 2.544073,-2.54407 z"
         style="opacity:1;fill:#e1e1e1;fill-opacity:1;stroke:none;stroke-width:0.28798881;stroke-linecap:round;stroke-linejoin:round;stroke-miterlimit:4;stroke-dasharray:none;stroke-opacity:1" />
      <path
         inkscape:connector-curvature="0"
         id="rect5795"
         d="m -32.747287,115.90037 h 56.580146 v 5.08814 h -56.580146 z"
         style="opacity:1;fill:#e1e1e1;fill-opacity:1;stroke:none;stroke-width:0.29437995;stroke-linecap:round;stroke-linejoin:round;stroke-miterlimit:4;stroke-dasharray:none;stroke-opacity:1" />
      <path
         inkscape:connector-curvature="0"
         id="rect5813"
         d="m -18.638551,129.10071 c -0.327748,0.18922 -0.439268,0.60542 -0.250048,0.93316 l 1.12564,1.94967 a 8.6528644,8.6528644 0 0 0 -1.232073,1.64716 l -2.200958,-0.58974 c -0.365557,-0.098 -0.738676,0.11747 -0.836632,0.48303 l -0.903642,3.37247 c -0.09796,0.36556 0.117463,0.73868 0.48303,0.83663 l 2.302311,0.6169 a 8.6528644,8.6528644 0 0 0 0.309474,1.91871 l -2.11708,1.2223 c -0.327748,0.18923 -0.439259,0.60542 -0.250034,0.93317 l 1.745745,3.02372 c 0.18923,0.32775 0.605416,0.43927 0.933164,0.25005 l 2.251563,-1.29995 a 8.6528644,8.6528644 0 0 0 1.44252,1.04348 l -0.686983,2.56386 c -0.09796,0.36555 0.117463,0.73868 0.48303,0.83663 l 3.372462,0.90366 c 0.365561,0.0979 0.73868,-0.11748 0.836632,-0.48303 l 0.714142,-2.66523 a 8.6528644,8.6528644 0 0 0 1.6526986,-0.23889 l 1.39107,2.4094 c 0.189225,0.32775 0.6054207,0.43926 0.933168,0.25004 l 3.0237231,-1.74575 c 0.3277565,-0.18923 0.4392728,-0.60542 0.2500478,-0.93317 l -1.3913,-2.4098 a 8.6528644,8.6528644 0 0 0 1.0287488,-1.31264 l 2.6699768,0.71542 c 0.3655572,0.0979 0.73868516,-0.11747 0.83663237,-0.48303 l 0.9036807,-3.37257 c 0.0979564,-0.36557 -0.11746861,-0.73869 -0.48303,-0.83664 l -2.56699247,-0.68782 a 8.6528644,8.6528644 0 0 0 -0.183589,-1.76767 l 2.2557984,-1.30238 c 0.32774732,-0.18923 0.43927289,-0.60542 0.25004289,-0.93318 L -2.291357,130.92496 c -0.189225,-0.32774 -0.6054256,-0.43926 -0.9331729,-0.25004 l -2.1209855,1.22455 a 8.6528644,8.6528644 0 0 0 -1.5042174,-1.22489 l 0.618181,-2.30708 c 0.097956,-0.36557 -0.1174636,-0.73869 -0.48303,-0.83664 l -3.3725762,-0.90368 c -0.365552,-0.0979 -0.73868,0.11748 -0.836632,0.48303 l -0.590587,2.2041 a 8.6528644,8.6528644 0 0 0 -2.041873,0.23995 l -1.12541,-1.94927 c -0.18922,-0.32773 -0.605412,-0.43926 -0.933168,-0.25003 z m 4.699762,4.64873 a 4.8577478,4.8577478 0 0 1 6.6358079,1.77805 4.8577478,4.8577478 0 0 1 -1.7780632,6.63581 4.8577478,4.8577478 0 0 1 -6.6358047,-1.77806 4.8577478,4.8577478 0 0 1 1.77806,-6.6358 z m 0.53131,0.92025 a 3.7951156,3.7951156 0 0 0 -1.389107,5.18423 3.7951156,3.7951156 0 0 0 5.1842267,1.38911 3.7951156,3.7951156 0 0 0 1.3891155,-5.18423 3.7951156,3.7951156 0 0 0 -5.1842352,-1.38911 z"
         style="opacity:1;fill:#f7ce3e;fill-opacity:1;stroke:none;stroke-width:0.09565354;stroke-linecap:round;stroke-linejoin:round;stroke-miterlimit:4;stroke-dasharray:none;stroke-opacity:1" />
    </g>
  </g>
</svg>
