<?xml version="1.0" encoding="UTF-8" standalone="no"?>
<!-- Created with Inkscape (http://www.inkscape.org/) -->

<svg
   xmlns:dc="http://purl.org/dc/elements/1.1/"
   xmlns:cc="http://creativecommons.org/ns#"
   xmlns:rdf="http://www.w3.org/1999/02/22-rdf-syntax-ns#"
   xmlns:svg="http://www.w3.org/2000/svg"
   xmlns="http://www.w3.org/2000/svg"
   xmlns:sodipodi="http://sodipodi.sourceforge.net/DTD/sodipodi-0.dtd"
   xmlns:inkscape="http://www.inkscape.org/namespaces/inkscape"
   width="1000"
   height="600"
   viewBox="0 0 264.58333 158.75"
   version="1.1"
   id="svg5126"
   inkscape:version="0.92.2 (5c3e80d, 2017-08-06)"
   sodipodi:docname="patatap.svg">
  <defs
     id="defs5120" />
  <sodipodi:namedview
     id="base"
     pagecolor="#ffffff"
     bordercolor="#00ffff"
     borderopacity="0.94117647"
     inkscape:pageopacity="0.0"
     inkscape:pageshadow="2"
     inkscape:zoom="1"
     inkscape:cx="312.25108"
     inkscape:cy="270.99235"
     inkscape:document-units="px"
     inkscape:current-layer="layer1"
     showgrid="false"
     showborder="true"
     inkscape:window-width="2560"
     inkscape:window-height="1017"
     inkscape:window-x="-8"
     inkscape:window-y="-8"
     inkscape:window-maximized="1"
     units="px"
     inkscape:showpageshadow="true"
     inkscape:measure-start="0,0"
     inkscape:measure-end="0,0" />
  <metadata
     id="metadata5123">
    <rdf:RDF>
      <cc:Work
         rdf:about="">
        <dc:format>image/svg+xml</dc:format>
        <dc:type
           rdf:resource="http://purl.org/dc/dcmitype/StillImage" />
        <dc:title></dc:title>
      </cc:Work>
    </rdf:RDF>
  </metadata>
  <g
     inkscape:label="Layer 1"
     inkscape:groupmode="layer"
     id="layer1"
     transform="translate(0,-138.25001)">
    <path
       style="opacity:1;fill:#ffaaee;fill-opacity:0.99512197;stroke:none;stroke-width:2.58421636;stroke-miterlimit:4;stroke-dasharray:none"
       d="M 652.57227 600.77148 A 68.944011 68.944011 0 0 0 653.50195 598.84766 A 68.944011 68.944011 0 0 0 655.86523 592.375 A 68.944011 68.944011 0 0 0 657.57031 585.69727 A 68.944011 68.944011 0 0 0 658.59961 578.88281 A 68.944011 68.944011 0 0 0 658.94336 572 A 68.944011 68.944011 0 0 0 658.77148 567.12305 A 68.944011 68.944011 0 0 0 657.94141 560.28125 A 68.944011 68.944011 0 0 0 656.43164 553.55664 A 68.944011 68.944011 0 0 0 654.25781 547.01758 A 68.944011 68.944011 0 0 0 651.44336 540.72656 A 68.944011 68.944011 0 0 0 648.01367 534.75 A 68.944011 68.944011 0 0 0 644.00586 529.14453 A 68.944011 68.944011 0 0 0 639.45703 523.9668 A 68.944011 68.944011 0 0 0 634.41406 519.26953 A 68.944011 68.944011 0 0 0 628.92969 515.09766 A 68.944011 68.944011 0 0 0 623.05273 511.49609 A 68.944011 68.944011 0 0 0 616.84766 508.49805 A 68.944011 68.944011 0 0 0 610.375 506.13477 A 68.944011 68.944011 0 0 0 603.69727 504.42969 A 68.944011 68.944011 0 0 0 596.88281 503.40039 A 68.944011 68.944011 0 0 0 590 503.05664 A 68.944011 68.944011 0 0 0 585.12305 503.22852 A 68.944011 68.944011 0 0 0 578.28125 504.05859 A 68.944011 68.944011 0 0 0 571.55664 505.56836 A 68.944011 68.944011 0 0 0 565.01758 507.74219 A 68.944011 68.944011 0 0 0 558.72656 510.55664 A 68.944011 68.944011 0 0 0 552.75 513.98633 A 68.944011 68.944011 0 0 0 547.14453 517.99414 A 68.944011 68.944011 0 0 0 541.9668 522.54297 A 68.944011 68.944011 0 0 0 537.26953 527.58398 A 68.944011 68.944011 0 0 0 533.09766 533.07031 A 68.944011 68.944011 0 0 0 529.49609 538.94727 A 68.944011 68.944011 0 0 0 526.49805 545.15234 A 68.944011 68.944011 0 0 0 524.13477 551.625 A 68.944011 68.944011 0 0 0 522.42969 558.30273 A 68.944011 68.944011 0 0 0 521.40039 565.11719 A 68.944011 68.944011 0 0 0 521.05664 572 A 68.944011 68.944011 0 0 0 521.22852 576.87695 A 68.944011 68.944011 0 0 0 522.05859 583.71875 A 68.944011 68.944011 0 0 0 523.56836 590.44141 A 68.944011 68.944011 0 0 0 525.74219 596.98242 A 68.944011 68.944011 0 0 0 527.4375 600.77148 L 652.57227 600.77148 z "
       id="path863"
       transform="matrix(0.26458333,0,0,0.26458333,0,138.25001)" />
    <path
       style="opacity:1;fill:#000000;fill-opacity:0.99512197;stroke:none;stroke-width:0.68466115;stroke-miterlimit:4;stroke-dasharray:none"
       d="M 0.11472168,138.18955 V 297.20413 H 139.69197 a 18.259856,18.272136 0 0 1 -0.449,-1.00421 18.259856,18.272136 0 0 1 -0.57574,-1.73356 18.259856,18.272136 0 0 1 -0.39986,-1.78169 18.259856,18.272136 0 0 1 -0.21985,-1.81328 18.259856,18.272136 0 0 1 -0.0455,-1.29253 18.259856,18.272136 0 0 1 0.091,-1.82414 18.259856,18.272136 0 0 1 0.27261,-1.80602 18.259856,18.272136 0 0 1 0.45159,-1.76979 18.259856,18.272136 0 0 1 0.62592,-1.71545 18.259856,18.272136 0 0 1 0.79403,-1.64452 18.259856,18.272136 0 0 1 0.95388,-1.55756 18.259856,18.272136 0 0 1 1.10492,-1.45403 18.259856,18.272136 0 0 1 1.24408,-1.33601 18.259856,18.272136 0 0 1 1.37132,-1.20558 18.259856,18.272136 0 0 1 1.48461,-1.06218 18.259856,18.272136 0 0 1 1.5829,-0.90896 18.259856,18.272136 0 0 1 1.66618,-0.74592 18.259856,18.272136 0 0 1 1.73187,-0.57612 18.259856,18.272136 0 0 1 1.78102,-0.40014 18.259856,18.272136 0 0 1 1.81205,-0.21999 18.259856,18.272136 0 0 1 1.29166,-0.0456 18.259856,18.272136 0 0 1 1.82292,0.091 18.259856,18.272136 0 0 1 1.80481,0.2728 18.259856,18.272136 0 0 1 1.7686,0.45189 18.259856,18.272136 0 0 1 1.71429,0.62634 18.259856,18.272136 0 0 1 1.64342,0.79457 18.259856,18.272136 0 0 1 1.55651,0.95451 18.259856,18.272136 0 0 1 1.45254,1.10567 18.259856,18.272136 0 0 1 1.33563,1.24491 18.259856,18.272136 0 0 1 1.20476,1.37224 18.259856,18.272136 0 0 1 1.06147,1.48562 18.259856,18.272136 0 0 1 0.90836,1.58395 18.259856,18.272136 0 0 1 0.74541,1.6673 18.259856,18.272136 0 0 1 0.57574,1.73305 18.259856,18.272136 0 0 1 0.39986,1.78221 18.259856,18.272136 0 0 1 0.21985,1.81328 18.259856,18.272136 0 0 1 0.0455,1.29252 18.259856,18.272136 0 0 1 -0.091,1.82414 18.259856,18.272136 0 0 1 -0.27261,1.80603 18.259856,18.272136 0 0 1 -0.4516,1.76979 18.259856,18.272136 0 0 1 -0.62591,1.71544 18.259856,18.272136 0 0 1 -0.24623,0.50987 h 92.12866 V 138.18955 Z"
       id="rect5671"
       inkscape:connector-curvature="0" />
    <circle
       r="17.060335"
       cy="198.70728"
       cx="214.97395"
       id="circle837"
       style="fill:#8dd35f;fill-opacity:1;stroke:#8dd35f;stroke-width:0.27516663;stroke-opacity:1" />
    <circle
       style="fill:#ffcc00;fill-opacity:1;stroke:#ffcc00;stroke-width:0.0762;stroke-opacity:1"
       id="path831"
       cx="22.092699"
       cy="267.76355"
       r="4.724401" />
    <circle
       r="25.065567"
       cy="213.12709"
       cx="103.98125"
       id="circle833"
       style="fill:#00ccff;fill-opacity:1;stroke:#00ccff;stroke-width:0.40428329;stroke-opacity:1" />
    <circle
       style="fill:#aca793;fill-opacity:1;stroke:#aca793;stroke-width:0.17144999;stroke-opacity:1"
       id="circle835"
       cx="242.35834"
       cy="265.77917"
       r="10.629901" />
    <text
       xml:space="preserve"
       style="font-style:normal;font-variant:normal;font-weight:300;font-stretch:normal;font-size:50.79999924px;line-height:1.25;font-family:Lato;-inkscape-font-specification:'Lato Light';letter-spacing:0px;word-spacing:0px;fill:#ffffff;fill-opacity:1;stroke:none;stroke-width:0.26458332"
       x="47.081726"
       y="226.35628"
       id="text829"><tspan
         sodipodi:role="line"
         id="tspan827"
         x="47.081726"
         y="226.35628"
         style="fill:#ffffff;stroke-width:0.26458332">Patatap</tspan></text>
    <circle
       style="fill:#93a7ac;fill-opacity:1;stroke:#93a7ac;stroke-width:0.27516663;stroke-opacity:1"
       id="circle839"
       cx="36.380203"
       cy="162.72394"
       r="17.060335" />
    <text
       xml:space="preserve"
       style="font-style:normal;font-variant:normal;font-weight:300;font-stretch:normal;font-size:11.28888893px;line-height:1.25;font-family:Lato;-inkscape-font-specification:'Lato Light';letter-spacing:0px;word-spacing:0px;fill:#ffffff;fill-opacity:1;stroke:none;stroke-width:0.26458332"
       x="56.885418"
       y="243.2896"
       id="text867"><tspan
         sodipodi:role="line"
         id="tspan865"
         x="56.885418"
         y="243.2896"
         style="font-size:9.87777805px;fill:#ffffff;stroke-width:0.26458332">Make music by pressing letter keys.</tspan></text>
  </g>
</svg>
