<?xml version="1.0" encoding="UTF-8" standalone="no"?>
<!-- Created with Inkscape (http://www.inkscape.org/) -->

<svg
   xmlns:dc="http://purl.org/dc/elements/1.1/"
   xmlns:cc="http://creativecommons.org/ns#"
   xmlns:rdf="http://www.w3.org/1999/02/22-rdf-syntax-ns#"
   xmlns:svg="http://www.w3.org/2000/svg"
   xmlns="http://www.w3.org/2000/svg"
   xmlns:sodipodi="http://sodipodi.sourceforge.net/DTD/sodipodi-0.dtd"
   xmlns:inkscape="http://www.inkscape.org/namespaces/inkscape"
   width="1000"
   height="600"
   viewBox="0 0 264.58333 158.74999"
   version="1.1"
   id="svg8"
   sodipodi:docname="pending.svg"
   inkscape:export-filename="C:\Users\Wafiee\Desktop\pc.png"
   inkscape:export-xdpi="156.09756"
   inkscape:export-ydpi="156.09756"
   inkscape:version="0.92.2 (5c3e80d, 2017-08-06)">
  <defs
     id="defs2" />
  <sodipodi:namedview
     id="base"
     pagecolor="#ffffff"
     bordercolor="#666666"
     borderopacity="1.0"
     inkscape:pageopacity="0.0"
     inkscape:pageshadow="2"
     inkscape:zoom="0.70710678"
     inkscape:cx="286.11976"
     inkscape:cy="181.33931"
     inkscape:document-units="px"
     inkscape:current-layer="layer1"
     showgrid="false"
     showborder="true"
     inkscape:snap-nodes="true"
     inkscape:snap-global="false"
     showguides="true"
     inkscape:guide-bbox="true"
     inkscape:window-width="2560"
     inkscape:window-height="1017"
     inkscape:window-x="-8"
     inkscape:window-y="-8"
     inkscape:window-maximized="1"
     width="800mm"
     units="px" />
  <metadata
     id="metadata5">
    <rdf:RDF>
      <cc:Work
         rdf:about="">
        <dc:format>image/svg+xml</dc:format>
        <dc:type
           rdf:resource="http://purl.org/dc/dcmitype/StillImage" />
        <dc:title></dc:title>
      </cc:Work>
    </rdf:RDF>
  </metadata>
  <g
     inkscape:label="Layer 1"
     inkscape:groupmode="layer"
     id="layer1"
     transform="translate(0,-138.25)">
    <rect
       style="fill:#f7ce3e;fill-opacity:1;stroke:#f7ce3e;stroke-width:0.32694066;stroke-opacity:1"
       id="rect2176"
       width="264.52097"
       height="158.68764"
       x="0.031177096"
       y="138.28111" />
    <path
       style="opacity:1;fill:#5187a0;fill-opacity:1;stroke:none;stroke-width:0.60382134;stroke-miterlimit:4;stroke-dasharray:none"
       d="m 48.187114,202.95089 v -45.69682 h 84.345116 84.34511 v 45.69682 45.69681 H 132.53223 48.187114 Z"
       id="path4504"
       inkscape:connector-curvature="0" />
    <path
       style="opacity:1;fill:#0a1612;fill-opacity:1;stroke:none;stroke-width:0.88223058;stroke-miterlimit:4;stroke-dasharray:none"
       d="m 49.810327,152.8606 c -2.989966,0 -5.397026,3.00161 -5.397026,6.73008 v 96.72488 c 0,3.72846 2.40706,6.73007 5.397026,6.73007 H 215.25409 c 2.98999,0 5.39706,-3.00161 5.39706,-6.73007 v -96.72488 c 0,-3.72847 -2.40707,-6.73008 -5.39706,-6.73008 z m -0.135736,5.74373 H 215.38983 v 89.63845 H 49.674591 Z"
       id="rect4485"
       inkscape:connector-curvature="0" />
    <rect
       style="opacity:1;fill:#0a1612;fill-opacity:1;stroke:none;stroke-width:0.71139234;stroke-miterlimit:4;stroke-dasharray:none"
       id="rect4495"
       width="67.990913"
       height="8.2164888"
       x="98.536766"
       y="263.46701"
       rx="4.838943"
       ry="2.9242699"
       inkscape:export-xdpi="156.09756"
       inkscape:export-ydpi="156.09756" />
    <path
       style="opacity:1;fill:#0a1612;fill-opacity:1;stroke:none;stroke-width:0.55831438;stroke-miterlimit:4;stroke-dasharray:none"
       d="m 98.328837,272.52622 h 67.990953 l 6.4456,9.90192 H 92.29906 Z"
       id="rect4584"
       inkscape:connector-curvature="0"
       sodipodi:nodetypes="ccccc"
       inkscape:export-xdpi="156.09756"
       inkscape:export-ydpi="156.09756" />
    <path
       style="opacity:1;fill:#000000;fill-opacity:0;stroke:none;stroke-width:0.59450567;stroke-miterlimit:4;stroke-dasharray:none"
       d="m 49.739284,203.40078 v -44.74254 h 82.792886 82.793 v 44.74254 44.74254 h -82.793 -82.792886 z"
       id="path4498"
       inkscape:connector-curvature="0" />
    <g
       aria-label="{"
       transform="matrix(0.28363366,0,0,0.28363366,-4.2945637,169.53122)"
       style="font-style:normal;font-weight:normal;font-size:53.33333206px;line-height:1.25;font-family:sans-serif;letter-spacing:0px;word-spacing:0px;fill:#000000;fill-opacity:1;stroke:none"
       id="flowRoot4494" />
    <flowRoot
       xml:space="preserve"
       id="flowRoot4514"
       style="font-style:normal;font-weight:normal;font-size:40px;line-height:1.25;font-family:sans-serif;letter-spacing:0px;word-spacing:0px;fill:#000000;fill-opacity:1;stroke:none"
       transform="matrix(0.26458332,0,0,0.26458332,0,151.47917)"><flowRegion
         id="flowRegion4516"><rect
           id="rect4518"
           width="232"
           height="168"
           x="345"
           y="168" /></flowRegion><flowPara
         id="flowPara4520" /></flowRoot>    <text
       xml:space="preserve"
       style="font-style:normal;font-weight:normal;font-size:10.00294209px;line-height:1.25;font-family:sans-serif;letter-spacing:0px;word-spacing:0px;fill:#ffffff;fill-opacity:1;stroke:none;stroke-width:0.25007358"
       x="68.813042"
       y="217.16536"
       id="text4524"
       transform="scale(1.0032556,0.99675496)"><tspan
         sodipodi:role="line"
         id="tspan4522"
         x="68.813042"
         y="217.16536"
         style="font-style:normal;font-variant:normal;font-weight:300;font-stretch:normal;font-size:21.33960915px;font-family:Lato;-inkscape-font-specification:'Lato Light';fill:#ffffff;stroke-width:0.25007358">Coming Soon!</tspan></text>
    <ellipse
       style="opacity:1;fill:#c5c1c0;fill-opacity:1;stroke:none;stroke-width:0.2326327;stroke-miterlimit:4;stroke-dasharray:none"
       id="path4528"
       cx="132.53223"
       cy="255.30972"
       rx="4.5159783"
       ry="4.4867177" />
    <g
       aria-label="&gt;-"
       transform="matrix(0.38730223,0,0,0.4301569,-13.604422,115.69932)"
       style="font-style:normal;font-weight:normal;font-size:40px;line-height:1.25;font-family:sans-serif;letter-spacing:0px;word-spacing:0px;fill:#000000;fill-opacity:1;stroke:none"
       id="flowRoot4506">
      <path
         d="m 205.81067,120.60533 v 1.53067 l -28,14.41066 V 134.12 q 0,-0.41067 0.224,-0.70934 0.224,-0.336 0.74666,-0.59733 L 199.464,122.32267 q 0.59733,-0.29867 1.232,-0.52267 0.672,-0.224 1.41867,-0.41067 -1.41867,-0.336 -2.65067,-0.97066 l -20.68267,-10.45334 q -0.97066,-0.52266 -0.97066,-1.30666 V 106.232 Z"
         style="font-style:normal;font-variant:normal;font-weight:300;font-stretch:normal;font-size:74.66666412px;font-family:Lato;-inkscape-font-specification:'Lato Light';fill:#ffffff"
         id="path4511"
         inkscape:connector-curvature="0" />
      <path
         d="m 217.4645,122.77067 h 17.36 v 3.024 h -17.36 z"
         style="font-style:normal;font-variant:normal;font-weight:300;font-stretch:normal;font-size:74.66666412px;font-family:Lato;-inkscape-font-specification:'Lato Light';fill:#ffffff"
         id="path4513"
         inkscape:connector-curvature="0" />
    </g>
    <g
       aria-label="W"
       transform="matrix(0.09817344,0,0,0.09753733,158.1231,231.50577)"
       style="font-style:normal;font-weight:normal;font-size:40px;line-height:1.25;font-family:sans-serif;letter-spacing:0px;word-spacing:0px;fill:#0a1612;fill-opacity:1;stroke:none"
       id="flowRoot4530">
      <path
         d="m -241.28,229.9 -8.9,28.3 h -1.84 l -8.36,-24.56 q -0.16,-0.5 -0.28,-1.04 -0.12,0.54 -0.28,1.04 l -8.38,24.56 h -1.82 l -8.92,-28.3 h 1.7 q 0.58,0 0.74,0.54 l 7.14,23.26 q 0.22,0.8 0.4,1.82 0.1,-0.52 0.2,-0.96 0.1,-0.46 0.24,-0.86 l 8,-23.26 q 0.08,-0.22 0.28,-0.38 0.2,-0.16 0.48,-0.16 h 0.56 q 0.28,0 0.46,0.16 0.18,0.14 0.28,0.38 l 8,23.26 q 0.14,0.38 0.24,0.84 0.12,0.46 0.22,0.96 0.1,-0.5 0.18,-0.94 0.1,-0.46 0.2,-0.86 l 7.14,-23.26 q 0.06,-0.22 0.26,-0.38 0.22,-0.16 0.5,-0.16 z"
         style="font-style:normal;font-variant:normal;font-weight:300;font-stretch:normal;font-family:Lato;-inkscape-font-specification:'Lato Light';fill:#0a1612;fill-opacity:1"
         id="path4516"
         inkscape:connector-curvature="0" />
    </g>
    <text
       transform="scale(1.0032556,0.99675496)"
       id="text2139"
       y="199.11127"
       x="106.33775"
       style="font-style:normal;font-weight:normal;font-size:10.00294209px;line-height:1.25;font-family:sans-serif;letter-spacing:0px;word-spacing:0px;fill:#ffffff;fill-opacity:1;stroke:none;stroke-width:0.25007358"
       xml:space="preserve"><tspan
         style="font-style:normal;font-variant:normal;font-weight:300;font-stretch:normal;font-size:21.33960915px;font-family:Lato;-inkscape-font-specification:'Lato Light';fill:#ffffff;stroke-width:0.25007358"
         y="199.11127"
         x="106.33775"
         id="tspan2137"
         sodipodi:role="line">More</tspan></text>
  </g>
</svg>
