<?xml version="1.0" encoding="UTF-8" standalone="no"?>
<!-- Created with Inkscape (http://www.inkscape.org/) -->

<svg
   xmlns:dc="http://purl.org/dc/elements/1.1/"
   xmlns:cc="http://creativecommons.org/ns#"
   xmlns:rdf="http://www.w3.org/1999/02/22-rdf-syntax-ns#"
   xmlns:svg="http://www.w3.org/2000/svg"
   xmlns="http://www.w3.org/2000/svg"
   xmlns:sodipodi="http://sodipodi.sourceforge.net/DTD/sodipodi-0.dtd"
   xmlns:inkscape="http://www.inkscape.org/namespaces/inkscape"
   width="1000"
   height="600"
   viewBox="0 0 264.58333 158.74999"
   version="1.1"
   id="svg8"
   sodipodi:docname="pending.svg"
   inkscape:export-filename="C:\Users\Wafiee\Desktop\pc.png"
   inkscape:export-xdpi="156.09756"
   inkscape:export-ydpi="156.09756"
   inkscape:version="0.92.1 r15371">
  <defs
     id="defs2" />
  <sodipodi:namedview
     id="base"
     pagecolor="#ffffff"
     bordercolor="#666666"
     borderopacity="1.0"
     inkscape:pageopacity="0.0"
     inkscape:pageshadow="2"
     inkscape:zoom="1"
     inkscape:cx="478.65789"
     inkscape:cy="291.61702"
     inkscape:document-units="px"
     inkscape:current-layer="layer1"
     showgrid="false"
     showborder="true"
     inkscape:snap-nodes="true"
     inkscape:snap-global="false"
     showguides="true"
     inkscape:guide-bbox="true"
     inkscape:window-width="1920"
     inkscape:window-height="1001"
     inkscape:window-x="-9"
     inkscape:window-y="-9"
     inkscape:window-maximized="1"
     width="800mm"
     units="px" />
  <metadata
     id="metadata5">
    <rdf:RDF>
      <cc:Work
         rdf:about="">
        <dc:format>image/svg+xml</dc:format>
        <dc:type
           rdf:resource="http://purl.org/dc/dcmitype/StillImage" />
        <dc:title />
      </cc:Work>
    </rdf:RDF>
  </metadata>
  <g
     inkscape:label="Layer 1"
     inkscape:groupmode="layer"
     id="layer1"
     transform="translate(0,-138.25)">
    <path
       style="opacity:1;fill:#f7ce3e;fill-opacity:1;stroke:none;stroke-width:0.62900001;stroke-miterlimit:4;stroke-dasharray:none"
       d="M -26.058334,126.87292 H 302.01873 c 3.15318,0 5.69166,1.53405 5.69166,3.43958 v 180.44583 c 0,1.90553 -2.53848,3.43958 -5.69166,3.43958 H -26.058334 c -3.153182,0 -5.691664,-1.53405 -5.691664,-3.43958 V 130.3125 c 0,-1.90553 2.538482,-3.43958 5.691664,-3.43958 z"
       id="rect4519" />
    <path
       style="opacity:1;fill:#5187a0;fill-opacity:1;stroke:none;stroke-width:0.71022701;stroke-miterlimit:4;stroke-dasharray:none"
       d="m 33.34439,201.08167 v -53.74953 h 99.20845 99.20844 v 53.74953 53.74953 H 132.55284 33.34439 Z"
       id="path4504"
       inkscape:connector-curvature="0" />
    <path
       style="opacity:1;fill:#0a1612;fill-opacity:1;stroke:none;stroke-width:1.03769767;stroke-miterlimit:4;stroke-dasharray:none"
       d="m 35.465512,141.63528 c -3.51686,0 -6.348093,3.53055 -6.348093,7.91606 v 113.76978 c 0,4.38549 2.831233,7.91605 6.348093,7.91605 H 230.06386 c 3.51688,0 6.34813,-3.53056 6.34813,-7.91605 V 149.55134 c 0,-4.38551 -2.83125,-7.91606 -6.34813,-7.91606 z m -0.159656,6.75589 H 230.22352 V 253.82575 H 35.305856 Z"
       id="rect4485"
       inkscape:connector-curvature="0" />
    <rect
       style="opacity:1;fill:#0a1612;fill-opacity:1;stroke:none;stroke-width:0.83675426;stroke-miterlimit:4;stroke-dasharray:none"
       id="rect4495"
       width="79.972305"
       height="9.664403"
       x="92.778694"
       y="271.73279"
       rx="5.6916637"
       ry="3.4395862"
       inkscape:export-xdpi="156.09756"
       inkscape:export-ydpi="156.09756" />
    <path
       style="opacity:1;fill:#0a1612;fill-opacity:1;stroke:none;stroke-width:0.65670079;stroke-miterlimit:4;stroke-dasharray:none"
       d="m 92.534056,282.38843 h 79.972354 l 7.58145,11.64684 H 85.441709 Z"
       id="rect4584"
       inkscape:connector-curvature="0"
       sodipodi:nodetypes="ccccc"
       inkscape:export-xdpi="156.09756"
       inkscape:export-ydpi="156.09756" />
    <path
       style="opacity:1;fill:#000000;fill-opacity:0;stroke:none;stroke-width:0.69926971;stroke-miterlimit:4;stroke-dasharray:none"
       d="m 35.465197,201.08167 v -52.62709 h 97.382683 97.38282 v 52.62709 52.6271 H 132.84788 35.465197 Z"
       id="path4498"
       inkscape:connector-curvature="0" />
    <g
       aria-label="{"
       transform="matrix(0.28363366,0,0,0.28363366,-4.2945637,169.53122)"
       style="font-style:normal;font-weight:normal;font-size:53.33333206px;line-height:1.25;font-family:sans-serif;letter-spacing:0px;word-spacing:0px;fill:#000000;fill-opacity:1;stroke:none"
       id="flowRoot4494" />
    <flowRoot
       xml:space="preserve"
       id="flowRoot4514"
       style="font-style:normal;font-weight:normal;font-size:40px;line-height:1.25;font-family:sans-serif;letter-spacing:0px;word-spacing:0px;fill:#000000;fill-opacity:1;stroke:none"
       transform="matrix(0.26458332,0,0,0.26458332,0,151.47917)"><flowRegion
         id="flowRegion4516"><rect
           id="rect4518"
           width="232"
           height="168"
           x="345"
           y="168" /></flowRegion><flowPara
         id="flowPara4520" /></flowRoot>    <text
       xml:space="preserve"
       style="font-style:normal;font-weight:normal;font-size:11.76566505px;line-height:1.25;font-family:sans-serif;letter-spacing:0px;word-spacing:0px;fill:#ffffff;fill-opacity:1;stroke:none;stroke-width:0.29414165"
       x="56.668709"
       y="208.38792"
       id="text4524"
       transform="scale(1.0032556,0.99675495)"><tspan
         sodipodi:role="line"
         id="tspan4522"
         x="56.668709"
         y="208.38792"
         style="font-style:normal;font-variant:normal;font-weight:300;font-stretch:normal;font-size:25.1000843px;font-family:Lato;-inkscape-font-specification:'Lato Light';fill:#ffffff;stroke-width:0.29414165">Coming Soon!</tspan></text>
    <ellipse
       style="opacity:1;fill:#c5c1c0;fill-opacity:1;stroke:none;stroke-width:0.27362734;stroke-miterlimit:4;stroke-dasharray:none"
       id="path4528"
       cx="132.76456"
       cy="262.13803"
       rx="5.3117862"
       ry="5.277369" />
    <g
       aria-label="&gt;-"
       transform="matrix(0.45555281,0,0,0.50595935,-41.638067,97.92542)"
       style="font-style:normal;font-weight:normal;font-size:40px;line-height:1.25;font-family:sans-serif;letter-spacing:0px;word-spacing:0px;fill:#000000;fill-opacity:1;stroke:none"
       id="flowRoot4506">
      <path
         d="m 205.81067,120.60533 v 1.53067 l -28,14.41066 V 134.12 q 0,-0.41067 0.224,-0.70934 0.224,-0.336 0.74666,-0.59733 L 199.464,122.32267 q 0.59733,-0.29867 1.232,-0.52267 0.672,-0.224 1.41867,-0.41067 -1.41867,-0.336 -2.65067,-0.97066 l -20.68267,-10.45334 q -0.97066,-0.52266 -0.97066,-1.30666 V 106.232 Z"
         style="font-style:normal;font-variant:normal;font-weight:300;font-stretch:normal;font-size:74.66666412px;font-family:Lato;-inkscape-font-specification:'Lato Light';fill:#ffffff"
         id="path4511"
         inkscape:connector-curvature="0" />
      <path
         d="m 217.4645,122.77067 h 17.36 v 3.024 h -17.36 z"
         style="font-style:normal;font-variant:normal;font-weight:300;font-stretch:normal;font-size:74.66666412px;font-family:Lato;-inkscape-font-specification:'Lato Light';fill:#ffffff"
         id="path4513"
         inkscape:connector-curvature="0" />
    </g>
    <g
       aria-label="W"
       transform="matrix(0.11547361,0,0,0.11472541,162.86523,234.13934)"
       style="font-style:normal;font-weight:normal;font-size:40px;line-height:1.25;font-family:sans-serif;letter-spacing:0px;word-spacing:0px;fill:#0a1612;fill-opacity:1;stroke:none"
       id="flowRoot4530">
      <path
         d="m -241.28,229.9 -8.9,28.3 h -1.84 l -8.36,-24.56 q -0.16,-0.5 -0.28,-1.04 -0.12,0.54 -0.28,1.04 l -8.38,24.56 h -1.82 l -8.92,-28.3 h 1.7 q 0.58,0 0.74,0.54 l 7.14,23.26 q 0.22,0.8 0.4,1.82 0.1,-0.52 0.2,-0.96 0.1,-0.46 0.24,-0.86 l 8,-23.26 q 0.08,-0.22 0.28,-0.38 0.2,-0.16 0.48,-0.16 h 0.56 q 0.28,0 0.46,0.16 0.18,0.14 0.28,0.38 l 8,23.26 q 0.14,0.38 0.24,0.84 0.12,0.46 0.22,0.96 0.1,-0.5 0.18,-0.94 0.1,-0.46 0.2,-0.86 l 7.14,-23.26 q 0.06,-0.22 0.26,-0.38 0.22,-0.16 0.5,-0.16 z"
         style="font-style:normal;font-variant:normal;font-weight:300;font-stretch:normal;font-family:Lato;-inkscape-font-specification:'Lato Light';fill:#0a1612;fill-opacity:1"
         id="path4516"
         inkscape:connector-curvature="0" />
    </g>
  </g>
</svg>
